<?xml version="1.0" standalone="no"?>
<!DOCTYPE svg PUBLIC "-//W3C//DTD SVG 20010904//EN"
 "http://www.w3.org/TR/2001/REC-SVG-20010904/DTD/svg10.dtd">
<svg version="1.0" xmlns="http://www.w3.org/2000/svg"
 width="6939.000000pt" height="1151.000000pt" viewBox="0 0 6939.000000 1151.000000"
 preserveAspectRatio="xMidYMid meet">

<g transform="translate(0.000000,1151.000000) scale(0.100000,-0.100000)"
fill="#000000" stroke="none">
<path d="M5646 7435 c-126 -7 -256 -18 -290 -24 -34 -6 -97 -15 -141 -21 -105
-14 -420 -79 -475 -99 -14 -5 -68 -21 -120 -37 -250 -73 -543 -204 -769 -345
-178 -111 -380 -297 -466 -430 -54 -84 -123 -227 -132 -273 -3 -17 -12 -56
-21 -86 -19 -68 -21 -348 -2 -395 6 -16 15 -51 20 -77 18 -93 115 -269 219
-397 97 -119 333 -298 541 -408 209 -111 500 -222 740 -283 47 -12 103 -26
125 -32 22 -6 74 -16 115 -23 41 -7 102 -18 135 -24 169 -30 400 -51 665 -62
250 -10 345 -9 625 4 182 9 377 23 435 31 58 8 139 19 180 25 150 20 324 55
515 105 203 52 556 196 658 268 l27 19 0 494 c0 440 -2 494 -16 499 -20 8
-858 8 -878 0 -14 -5 -16 -50 -16 -399 0 -302 -3 -395 -12 -402 -21 -17 -223
-74 -361 -102 -180 -38 -394 -62 -660 -76 -545 -28 -980 30 -1371 182 -234 91
-402 195 -541 337 -81 82 -108 117 -142 186 -59 119 -77 193 -77 325 -2 264
117 470 379 656 232 166 653 317 1000 360 330 41 537 48 840 29 484 -31 663
-68 1023 -210 101 -40 97 -41 254 81 58 46 152 119 207 162 56 43 101 82 101
87 0 23 -213 117 -340 151 -41 11 -109 29 -150 41 -326 89 -621 138 -945 158
-279 17 -638 19 -879 5z"/>
<path d="M23235 7435 c-115 -7 -250 -20 -299 -29 -49 -9 -100 -16 -114 -16
-53 0 -343 -74 -481 -122 -315 -111 -506 -250 -588 -428 -77 -166 -77 -316 0
-488 101 -230 446 -412 997 -527 143 -30 521 -90 790 -125 184 -24 399 -56
475 -70 28 -6 86 -17 130 -26 295 -57 474 -136 547 -242 29 -41 33 -55 33
-113 0 -59 -4 -72 -35 -118 -80 -118 -299 -210 -585 -246 -160 -20 -546 -20
-741 0 -420 44 -848 158 -1217 324 -38 17 -80 31 -95 31 -15 0 -72 -30 -136
-72 -298 -194 -426 -280 -426 -288 0 -4 12 -13 28 -18 15 -6 83 -35 152 -65
302 -131 684 -241 1065 -305 229 -39 362 -52 686 -69 303 -15 346 -15 615 1
428 24 696 72 965 169 298 109 496 248 595 416 56 96 68 155 61 312 -4 122 -6
129 -43 200 -87 170 -212 272 -452 369 -273 110 -686 206 -1147 265 -66 8
-181 25 -255 36 -74 11 -162 24 -195 29 -132 17 -393 68 -520 102 -260 67
-369 144 -401 281 -13 55 -4 99 34 159 63 101 245 175 537 219 130 20 596 17
790 -5 231 -25 486 -71 655 -117 95 -26 276 -87 312 -105 15 -8 35 -14 45 -14
9 0 87 53 172 118 279 211 312 239 299 250 -39 30 -377 143 -558 185 -242 57
-245 57 -475 91 -60 9 -141 21 -180 27 -96 14 -563 39 -710 37 -66 0 -214 -6
-330 -13z"/>
<path d="M29190 7444 c-19 -2 -128 -8 -242 -13 -301 -15 -613 -60 -878 -128
-30 -8 -80 -20 -110 -28 -176 -44 -401 -131 -603 -230 -245 -122 -410 -236
-559 -386 -217 -220 -318 -446 -321 -724 -2 -127 14 -233 44 -300 10 -22 19
-52 19 -66 0 -15 7 -32 15 -39 8 -7 15 -18 15 -25 0 -7 8 -23 18 -36 11 -13
22 -36 26 -51 3 -16 10 -28 15 -28 5 0 25 -24 44 -52 40 -60 131 -158 147
-158 5 0 10 -7 10 -15 0 -8 18 -24 40 -35 22 -11 40 -25 40 -30 0 -5 28 -27
63 -49 34 -22 69 -47 78 -56 9 -8 21 -15 28 -15 7 0 26 -9 42 -21 30 -21 304
-159 316 -159 7 0 108 -45 145 -65 14 -8 38 -15 53 -15 14 0 38 -6 53 -13 24
-12 78 -26 227 -55 51 -11 84 -4 49 9 -16 6 2494 16 2581 10 31 -2 49 -5 101
-16 24 -5 33 -3 37 10 5 12 11 14 24 6 12 -6 26 -5 46 6 16 8 36 12 44 8 9 -3
26 1 38 9 22 15 118 52 160 63 11 3 40 14 65 26 25 11 61 27 80 35 19 8 42 19
50 24 23 12 92 43 153 67 15 6 26 15 23 20 -6 9 -132 82 -402 233 l-141 78
-129 -58 c-227 -104 -482 -197 -611 -223 -24 -5 -64 -14 -90 -20 -27 -5 -79
-15 -118 -20 -38 -6 -99 -15 -135 -21 -85 -14 -764 -14 -850 0 -36 6 -96 15
-135 20 -38 6 -96 18 -128 26 -32 9 -70 16 -85 16 -16 0 -32 4 -37 9 -6 4 -32
14 -60 21 -157 40 -441 166 -596 265 -194 125 -347 295 -401 448 -48 137 -58
241 -33 354 48 225 195 409 447 561 275 165 590 267 1003 324 139 20 204 23
500 23 271 0 368 -4 475 -18 362 -48 591 -115 930 -272 65 -30 126 -55 134
-55 33 0 551 311 551 330 0 7 -52 42 -115 76 -398 218 -990 375 -1529 405
-196 11 -571 19 -621 13z"/>
<path d="M46952 7435 c-133 -7 -257 -15 -275 -19 -17 -3 -86 -13 -152 -21
-604 -78 -1178 -289 -1562 -574 -94 -69 -253 -218 -293 -275 -98 -139 -145
-232 -191 -381 -18 -60 -22 -94 -22 -240 0 -145 3 -181 22 -247 12 -43 28 -90
36 -105 8 -15 15 -35 15 -43 1 -16 67 -128 132 -223 48 -70 205 -219 311 -294
162 -116 414 -249 625 -329 411 -156 803 -231 1372 -261 392 -21 726 -8 1075
41 442 62 895 208 1235 401 47 26 87 49 89 52 9 8 -27 32 -134 91 -60 33 -180
99 -265 146 -85 47 -163 86 -173 86 -9 0 -49 -16 -88 -35 -265 -134 -605 -241
-909 -287 -140 -21 -190 -23 -505 -23 -291 0 -370 3 -470 19 -318 48 -535 113
-770 226 -327 158 -520 329 -607 535 -50 118 -58 156 -58 265 0 253 139 470
420 655 367 242 914 375 1540 375 559 0 980 -90 1422 -305 50 -25 100 -45 110
-45 23 0 78 27 188 95 47 28 151 91 233 139 81 49 147 91 147 95 0 9 -100 67
-208 120 -147 74 -390 166 -542 207 -180 49 -249 65 -370 87 -221 42 -362 58
-620 73 -286 16 -427 16 -758 -1z"/>
<path d="M52890 7385 c-25 -7 -103 -32 -175 -55 -71 -23 -147 -46 -167 -51
-21 -5 -55 -15 -75 -23 -21 -8 -99 -33 -173 -56 -74 -22 -162 -50 -195 -60
-101 -33 -433 -136 -575 -180 -74 -23 -153 -47 -175 -55 -22 -7 -101 -32 -175
-55 -214 -67 -383 -121 -405 -130 -17 -7 -14 -11 28 -29 41 -18 448 -150 577
-187 25 -7 169 -52 320 -99 151 -48 302 -95 335 -105 198 -61 706 -220 800
-250 120 -39 153 -42 228 -20 102 30 141 42 997 310 376 118 468 147 530 165
68 20 386 120 460 144 104 34 150 53 150 62 0 7 -159 63 -270 94 -25 8 -133
41 -240 75 -260 82 -727 229 -765 240 -16 5 -95 30 -175 55 -80 26 -165 53
-190 60 -25 8 -74 23 -110 34 -36 11 -145 45 -244 75 -188 59 -234 65 -316 41z"/>
<path d="M9470 7367 l-25 -13 -3 -1441 c-2 -1331 -1 -1442 15 -1454 23 -20
855 -21 875 -1 11 11 13 285 13 1458 0 1273 -2 1446 -15 1454 -24 16 -829 13
-860 -3z"/>
<path d="M11871 7362 c-10 -18 -14 -691 -12 -2069 1 -745 3 -823 17 -838 15
-15 60 -16 443 -13 234 2 432 7 439 11 9 6 12 115 12 487 0 292 4 481 10 485
5 3 277 5 605 5 l597 0 58 -43 c54 -39 267 -201 450 -342 43 -33 127 -97 187
-142 59 -46 191 -146 293 -224 102 -78 214 -162 250 -188 l65 -46 455 -3 c451
-3 660 2 660 18 0 8 -129 106 -970 738 -201 151 -374 283 -384 293 -23 21 -24
20 74 38 302 55 589 165 756 290 109 81 201 188 239 276 58 135 65 172 65 330
0 133 -3 162 -24 226 -32 101 -43 125 -92 195 -77 110 -195 206 -347 281 -73
36 -296 113 -328 113 -10 0 -28 4 -41 10 -27 12 -150 35 -298 55 -58 8 -136
19 -175 25 -71 10 -237 21 -575 40 -103 6 -677 10 -1302 10 -1056 0 -1118 -1
-1127 -18z m2054 -435 c465 -3 581 -6 685 -21 354 -49 512 -122 608 -280 l37
-61 0 -135 0 -135 -40 -73 c-25 -47 -58 -89 -91 -117 -225 -193 -582 -240
-1767 -233 -491 3 -569 5 -577 18 -6 9 -10 220 -10 523 0 493 1 508 19 515 11
4 145 6 298 5 153 -2 530 -4 838 -6z"/>
<path d="M17560 7373 c-8 -3 -18 -11 -22 -17 -4 -6 -8 -657 -8 -1447 0 -1324
1 -1438 17 -1450 13 -12 284 -14 1675 -14 1464 0 1660 2 1668 15 8 13 15 436
8 442 -2 1 -559 5 -1238 8 l-1235 5 -5 1230 -5 1230 -420 2 c-231 1 -427 -1
-435 -4z"/>
<path d="M34199 7373 c-29 -5 -47 -21 -124 -115 -30 -38 -79 -97 -107 -132
-29 -35 -75 -92 -103 -127 -27 -34 -78 -96 -112 -138 -34 -42 -78 -96 -98
-121 -20 -25 -52 -65 -73 -90 -20 -25 -53 -65 -72 -89 -19 -24 -51 -63 -70
-86 -19 -24 -55 -68 -80 -100 -25 -31 -55 -68 -67 -83 -13 -15 -42 -51 -65
-80 -73 -90 -126 -156 -153 -187 -30 -35 -84 -103 -140 -174 -22 -28 -69 -87
-105 -130 -36 -43 -85 -104 -110 -136 -25 -31 -60 -73 -77 -93 -18 -20 -33
-40 -33 -43 0 -3 -16 -23 -35 -45 -19 -21 -35 -44 -35 -51 0 -7 -6 -16 -14
-20 -8 -4 -34 -33 -57 -63 -24 -30 -49 -59 -56 -63 -7 -4 -13 -14 -13 -22 0
-7 -16 -29 -36 -47 -19 -19 -36 -41 -38 -50 -1 -9 -16 -29 -34 -44 -18 -16
-32 -35 -32 -43 0 -8 -17 -29 -37 -48 -23 -19 -38 -42 -38 -55 0 -13 -5 -23
-12 -23 -6 0 -23 -10 -37 -23 -22 -18 -25 -26 -16 -42 15 -28 12 -42 -8 -38
-26 4 -52 -20 -52 -48 0 -29 5 -32 75 -40 48 -6 57 -5 50 7 -6 11 -5 12 6 2
15 -15 594 -19 585 -4 -3 4 28 8 70 7 67 -2 75 0 71 16 -7 24 13 47 48 56 23
6 31 15 33 35 2 15 9 27 17 27 7 0 15 6 17 12 3 7 13 13 24 13 13 0 20 8 22
28 2 15 9 27 17 27 7 0 15 7 19 15 3 8 12 15 21 15 14 0 17 4 19 33 1 6 18 25
39 40 20 16 37 33 37 39 0 19 48 56 82 63 18 4 38 11 44 16 16 13 2588 6 2641
-7 23 -6 49 -18 58 -28 9 -9 21 -16 26 -16 5 0 9 -7 9 -16 0 -16 44 -64 58
-64 4 0 13 -13 19 -30 6 -16 18 -30 27 -30 9 0 16 -4 16 -10 0 -5 7 -10 15
-10 10 0 15 -10 15 -30 0 -20 5 -30 15 -30 28 0 65 -32 65 -54 0 -18 8 -25 38
-32 32 -8 37 -13 40 -41 3 -30 7 -33 50 -40 60 -10 626 -11 672 0 25 5 29 5
15 -2 -15 -7 -7 -10 36 -10 56 -1 99 22 99 52 0 18 -37 47 -59 47 -14 0 -17 6
-14 24 6 29 -24 75 -49 76 -11 0 -15 6 -11 18 3 12 -9 29 -36 53 -23 18 -41
41 -41 49 0 8 -15 32 -33 52 -17 21 -50 60 -72 88 -22 29 -45 57 -50 63 -6 7
-30 37 -55 67 -25 30 -50 59 -57 63 -7 4 -13 13 -13 20 0 7 -17 31 -38 54 -20
24 -53 63 -72 88 -19 25 -51 65 -70 89 -92 114 -107 133 -140 173 -19 23 -54
66 -78 96 -24 29 -53 64 -66 78 -12 13 -31 39 -41 57 -11 17 -22 32 -26 32 -4
0 -23 21 -43 48 -48 63 -85 110 -181 226 -44 54 -93 115 -110 136 -16 21 -66
82 -110 135 -44 54 -93 115 -110 136 -16 21 -66 82 -110 135 -44 53 -91 112
-105 130 -14 19 -72 91 -130 161 -137 168 -140 171 -177 212 l-31 36 -459 1
c-252 1 -470 -1 -484 -3z m509 -655 c18 -24 77 -97 132 -163 54 -66 122 -150
152 -186 29 -37 139 -171 243 -298 105 -128 204 -249 220 -270 110 -139 159
-197 171 -204 8 -5 12 -12 9 -18 -7 -11 -1955 -13 -1955 -1 1 4 17 25 36 47
19 22 61 72 92 110 99 122 246 300 252 305 3 3 50 61 105 130 54 69 124 155
154 191 31 36 117 141 190 233 74 91 142 166 151 166 9 0 30 -19 48 -42z"/>
<path d="M38328 7369 c-17 -9 -18 -55 -18 -742 0 -1010 22 -1917 48 -1987 8
-21 10 -19 16 19 7 43 7 43 39 36 18 -5 174 -9 347 -11 173 -1 323 -6 334 -10
24 -9 33 7 41 71 12 100 27 155 43 164 15 8 16 75 19 733 4 785 8 928 27 928
17 0 209 -130 646 -435 25 -17 94 -65 153 -106 60 -41 123 -84 140 -97 18 -12
43 -30 57 -40 28 -19 279 -194 375 -262 33 -23 103 -70 155 -106 52 -35 112
-76 133 -91 57 -43 136 -96 192 -131 28 -17 55 -35 60 -39 87 -68 139 -102
190 -126 17 -8 36 -21 44 -30 7 -10 19 -17 25 -17 6 0 27 -13 46 -28 19 -16
43 -31 53 -35 9 -4 16 -11 15 -17 -2 -6 14 -17 34 -24 20 -7 44 -21 53 -30 9
-9 27 -19 41 -22 13 -3 24 -10 24 -15 0 -4 20 -17 45 -28 25 -11 45 -24 45
-29 0 -5 13 -15 29 -22 16 -6 32 -18 35 -26 3 -8 15 -14 26 -14 11 0 29 -9 40
-20 11 -11 31 -22 44 -26 13 -3 32 -14 42 -25 9 -10 27 -19 38 -19 12 0 31 -6
42 -14 16 -12 115 -14 572 -15 l553 0 19 31 19 32 9 -24 c8 -21 11 -15 20 40
11 62 16 144 27 475 3 83 5 595 6 1139 0 812 -2 990 -13 997 -15 10 -821 12
-856 3 l-23 -7 2 -1077 c1 -592 -1 -1082 -5 -1088 -10 -17 -56 -4 -91 27 -17
15 -64 49 -104 76 -40 28 -83 57 -95 65 -12 8 -96 68 -186 132 -91 64 -298
209 -460 322 -162 112 -308 214 -325 226 -59 42 -236 166 -350 245 -63 44
-173 121 -244 170 -70 50 -234 164 -365 255 -130 91 -285 199 -344 241 -135
95 -334 233 -482 335 l-115 79 -435 2 c-286 2 -441 -1 -452 -8z"/>
<path d="M56963 7370 c-13 -5 -23 -17 -23 -27 -2 -1902 1 -2878 10 -2887 8 -8
304 -12 953 -14 831 -2 986 0 1327 17 212 11 421 25 465 31 44 6 132 17 195
25 239 32 286 40 525 97 437 105 778 270 1032 501 50 46 203 227 203 241 0 3
13 26 30 52 16 26 34 63 40 83 7 20 17 50 25 66 44 102 50 144 50 370 0 186
-3 229 -18 275 -33 101 -80 212 -104 247 -13 18 -23 36 -23 39 0 3 -28 42 -62
86 -153 198 -449 396 -768 515 -163 61 -408 133 -520 153 -25 4 -79 15 -120
23 -66 14 -220 38 -435 67 -66 9 -159 16 -577 40 -221 12 -2174 12 -2205 0z
m2432 -468 c343 -36 552 -77 780 -155 338 -115 574 -304 671 -536 28 -66 54
-210 54 -294 0 -258 -114 -478 -329 -636 -264 -193 -697 -320 -1241 -361 -104
-8 -375 -11 -825 -8 l-670 3 -3 995 c-2 939 -1 996 15 1008 15 11 141 13 683
9 578 -4 691 -7 865 -25z"/>
<path d="M63032 7370 l-22 -9 2 -1453 3 -1453 40 -7 c52 -9 3748 -9 3800 0
l40 7 3 223 c1 122 1 223 0 224 -2 1 -673 5 -1493 8 l-1490 5 -3 379 c-1 258
1 383 8 390 8 8 409 13 1298 16 l1287 5 3 213 2 212 -27 0 c-16 0 -568 1
-1228 1 -660 0 -1231 3 -1270 7 l-70 7 3 45 c4 59 3 172 -3 463 -5 175 -3 242
6 253 10 12 219 14 1429 14 780 0 1425 3 1434 6 14 5 16 33 16 213 0 113 -5
213 -10 221 -8 13 -229 15 -1872 17 -1101 1 -1872 -2 -1886 -7z"/>
<path d="M50614 6559 c-8 -14 -5 -1232 4 -1318 l7 -65 80 -19 c44 -11 94 -26
112 -33 17 -8 44 -14 60 -14 16 0 46 -9 68 -20 22 -11 51 -20 65 -20 14 0 50
-9 80 -20 30 -11 64 -20 75 -20 12 0 26 -5 32 -11 6 -6 43 -15 83 -20 40 -5
81 -16 90 -24 9 -8 35 -15 56 -15 22 0 67 -5 100 -11 32 -6 64 -12 69 -12 6
-1 9 4 7 12 -2 10 8 12 45 7 26 -3 289 -6 583 -6 395 -1 537 -5 542 -13 30
-45 55 204 65 635 5 220 3 291 -6 302 -7 8 -58 29 -114 46 -156 49 -213 67
-327 103 -58 19 -145 46 -195 61 -49 16 -108 34 -130 41 -22 8 -101 33 -175
55 -74 23 -218 68 -320 100 -102 32 -246 77 -320 100 -74 23 -182 57 -240 75
-402 127 -384 122 -396 104z"/>
<path d="M55290 6561 c-8 -5 -40 -16 -70 -24 -30 -9 -149 -45 -265 -82 -115
-37 -230 -73 -255 -80 -25 -7 -139 -43 -255 -80 -115 -37 -230 -73 -255 -80
-25 -7 -133 -41 -240 -75 -107 -34 -215 -68 -240 -75 -25 -7 -110 -34 -190
-60 -154 -49 -244 -77 -325 -100 -79 -23 -78 -17 -71 -285 13 -486 39 -880 57
-880 4 0 11 5 15 11 3 6 16 8 28 5 22 -5 46 5 49 20 1 5 18 8 37 7 19 -1 96
-3 172 -5 75 -1 134 -6 132 -10 -7 -10 32 -10 78 1 20 5 38 5 40 2 2 -4 37 -4
78 0 41 4 90 5 108 2 21 -3 41 0 57 11 13 9 45 16 70 16 32 0 51 6 65 20 14
14 33 20 68 20 27 0 57 7 70 16 12 8 50 20 84 25 35 6 67 14 73 20 5 5 22 9
37 9 16 0 48 9 70 20 23 11 54 20 70 20 15 0 42 9 60 20 18 11 47 20 64 20 18
0 51 9 75 20 24 11 55 20 69 20 14 0 38 7 54 15 15 8 39 15 53 15 13 0 43 9
65 20 23 11 56 20 72 20 17 0 46 9 64 20 18 11 45 20 60 21 15 0 50 8 77 18
l50 18 6 69 c3 38 8 299 9 579 2 281 4 539 5 575 1 36 0 89 -3 118 -4 48 -7
52 -31 52 -14 0 -33 -5 -41 -9z"/>
<path d="M28175 4650 c-4 -6 5 -10 20 -10 15 0 24 4 20 10 -3 6 -12 10 -20 10
-8 0 -17 -4 -20 -10z"/>
<path d="M30223 4653 c9 -2 23 -2 30 0 6 3 -1 5 -18 5 -16 0 -22 -2 -12 -5z"/>
<path d="M28128 4643 c7 -3 16 -2 19 1 4 3 -2 6 -13 5 -11 0 -14 -3 -6 -6z"/>
<path d="M28358 4643 c6 -2 18 -2 25 0 6 3 1 5 -13 5 -14 0 -19 -2 -12 -5z"/>
<path d="M30315 4640 c22 -5 44 -4 50 1 5 5 -11 9 -40 8 l-50 -1 40 -8z"/>
<path d="M30493 4643 c15 -2 37 -2 50 0 12 2 0 4 -28 4 -27 0 -38 -2 -22 -4z"/>
<path d="M31990 4639 c0 -5 5 -7 10 -4 6 3 10 8 10 11 0 2 -4 4 -10 4 -5 0
-10 -5 -10 -11z"/>
<path d="M37310 4640 c0 -5 5 -10 10 -10 6 0 10 5 10 10 0 6 -4 10 -10 10 -5
0 -10 -4 -10 -10z"/>
</g>
</svg>
