<svg width="1500" height="1500" viewBox="0 0 1500 1500" fill="none" xmlns="http://www.w3.org/2000/svg">
<g clip-path="url(#clip0_29_153)">
<path d="M915.092 1085.26C903.954 1075.84 897.188 1060.98 898.963 1046.5C900.737 1032.03 911.726 1018.72 925.981 1015.65C940.236 1012.58 956.485 1021.08 960.815 1035.01C963.198 1008.16 965.943 980.191 980.217 957.329C993.141 936.628 1015.53 921.815 1039.79 919.165C1064.05 916.515 1089.59 926.524 1104.72 945.672C1119.85 964.82 1123.55 992.658 1112.96 1014.64C1105.15 1030.84 1090.77 1042.89 1075.7 1052.69C1027.01 1084.11 968.608 1096.89 911.246 1088.67L915.092 1085.26Z" fill="#3F39B5"/>
<path d="M1080.73 927.079C1060.71 943.383 1042.35 961.619 1025.9 981.521C1000.17 1012.56 979.34 1047.36 964.15 1084.72C963.038 1087.44 967.462 1088.63 968.562 1085.93C993.416 1025.23 1033.09 971.725 1083.96 930.315C1086.25 928.454 1082.99 925.234 1080.73 927.079Z" fill="white"/>
<path d="M529.067 1082.7C544.366 1069.77 553.658 1049.35 551.221 1029.47C548.784 1009.59 533.69 991.316 514.112 987.094C494.533 982.872 472.214 994.558 466.267 1013.68C462.995 976.811 459.223 938.392 439.619 906.991C421.868 878.558 391.122 858.213 357.801 854.573C324.48 850.934 289.397 864.68 268.616 890.98C247.835 917.28 242.747 955.515 257.301 985.709C268.023 1007.95 287.777 1024.51 308.473 1037.97C374.503 1080.94 456.412 1098.86 534.351 1087.39" fill="#3F39B5"/>
<path d="M301.567 865.442C329.061 887.836 354.284 912.883 376.871 940.219C399.461 967.527 419.35 996.961 436.257 1028.11C445.707 1045.58 454.196 1063.56 461.687 1081.96C463.214 1085.7 457.137 1087.33 455.627 1083.63C442.359 1051.19 425.944 1020.13 406.618 990.899C387.385 961.772 365.373 934.578 340.889 909.701C327.041 895.637 312.43 882.346 297.123 869.886C293.985 867.331 298.455 862.908 301.567 865.442L301.567 865.442Z" fill="white"/>
<path d="M797.5 1090H508.5V715.5C508.42 684.969 518.088 655.21 536.096 630.556C536.76 629.651 537.422 628.758 538.104 627.875C546.815 616.451 557.18 606.39 568.859 598.024C569.518 597.544 570.181 597.072 570.853 596.601C580.625 589.838 591.196 584.31 602.325 580.142C602.986 579.891 603.659 579.64 604.332 579.399C614.397 575.807 624.83 573.347 635.44 572.063C636.098 571.974 636.773 571.903 637.448 571.833C647.787 570.728 658.215 570.728 668.554 571.833C669.227 571.903 669.902 571.974 670.568 572.064C681.175 573.348 691.606 575.808 701.668 579.399C702.341 579.64 703.014 579.891 703.677 580.142C714.669 584.258 725.115 589.703 734.783 596.358C735.455 596.819 736.127 597.291 736.79 597.763C743.336 602.435 749.485 607.641 755.173 613.327C759.735 617.887 763.986 622.748 767.898 627.878C768.578 628.758 769.24 629.651 769.903 630.554C787.911 655.209 797.58 684.969 797.5 715.5V1090Z" fill="#CCCCCC"/>
<path d="M1088.98 1090.64H350.688C350.372 1090.64 350.07 1090.52 349.848 1090.29C349.625 1090.07 349.5 1089.77 349.5 1089.45C349.5 1089.14 349.625 1088.83 349.848 1088.61C350.07 1088.39 350.372 1088.26 350.688 1088.26H1088.98C1089.3 1088.26 1089.6 1088.39 1089.82 1088.61C1090.04 1088.83 1090.17 1089.14 1090.17 1089.45C1090.17 1089.77 1090.04 1090.07 1089.82 1090.29C1089.6 1090.52 1089.3 1090.64 1088.98 1090.64Z" fill="#3F3D56"/>
<path d="M718 981.5H588C586.288 981.509 584.642 980.839 583.424 979.636C582.205 978.434 581.513 976.797 581.5 975.085V684.915C581.513 683.203 582.205 681.566 583.424 680.364C584.642 679.161 586.288 678.491 588 678.5H718C719.712 678.491 721.358 679.161 722.576 680.364C723.795 681.566 724.487 683.203 724.5 684.915V975.085C724.487 976.797 723.795 978.434 722.576 979.636C721.358 980.839 719.712 981.509 718 981.5Z" fill="white"/>
<path d="M724.5 772.39H581.5V774.39H724.5V772.39Z" fill="#CCCCCC"/>
<path d="M725 886.5H582V888.5H725V886.5Z" fill="#CCCCCC"/>
<path d="M628.5 678.5H626.5V982.5H628.5V678.5Z" fill="#CCCCCC"/>
<path d="M678.5 678.5H676.5V982.5H678.5V678.5Z" fill="#CCCCCC"/>
</g>
<path d="M690.751 474.938C690.544 474.938 690.336 474.93 690.128 474.917C676.415 474.037 629.494 467.403 601.471 418.978C599.401 415.404 599.81 410.856 602.489 407.664H602.49C625.892 388.643 644.172 368.056 654.962 345.181C656.911 342.86 659.835 341.592 662.794 341.644C665.833 341.716 668.633 343.146 670.477 345.567C683.781 363.04 710.047 393.97 736.476 404.814C739.447 406.034 741.597 408.509 742.376 411.61C743.15 414.684 742.434 417.854 740.414 420.305L698.377 471.319C696.488 473.613 693.673 474.938 690.751 474.938V474.938Z" fill="#E6E6E6"/>
<path d="M610.432 410.123L611.164 410.736C610.448 411.591 610.317 412.809 610.839 413.772C636.19 460.426 681.513 464.086 690.341 464.345C691.191 464.394 691.988 464.011 692.528 463.357L734.262 412.71C734.853 411.992 735.035 411.076 734.763 410.192C734.489 409.304 733.815 408.641 732.914 408.38C704.569 400.101 674.829 361.754 666.389 350.197C665.895 349.522 665.133 349.117 664.299 349.089C663.441 349.081 662.66 349.417 662.114 350.067C650.038 373.599 633.13 393.873 611.164 410.736L610.432 410.123Z" fill="white"/>
<path d="M632.18 421.665L670.011 383.114C672.597 380.479 668.545 376.424 665.956 379.062L628.126 417.613C625.54 420.248 629.591 424.303 632.18 421.665Z" fill="#E6E6E6"/>
<path d="M655.013 432.526C665.454 423.173 674.527 412.344 681.956 400.461C683.918 397.325 678.959 394.445 677.005 397.569C669.823 409.057 661.051 419.433 650.959 428.474C648.205 430.94 652.271 434.982 655.013 432.526H655.013H655.013Z" fill="#E6E6E6"/>
<path d="M675.592 445.531C685.098 435.007 693.19 423.262 699.56 410.592C701.213 407.305 696.268 404.4 694.609 407.699C688.454 419.941 680.724 431.308 671.537 441.479C669.07 444.21 673.113 448.276 675.592 445.531Z" fill="#E6E6E6"/>
<path d="M725.155 490.22C724.948 490.22 724.741 490.213 724.533 490.2C710.82 489.319 663.898 482.685 635.875 434.261C633.805 430.686 634.214 426.138 636.894 422.946H636.895C659.128 403.674 675.866 382.6 689.367 360.463C691.315 358.143 694.239 356.874 697.199 356.926C700.238 356.998 703.037 358.428 704.882 360.85C718.186 378.322 744.452 409.252 770.881 420.096C773.851 421.316 776.002 423.792 776.781 426.892C777.555 429.966 776.839 433.136 774.818 435.587L732.782 486.601C730.892 488.896 728.077 490.22 725.155 490.22V490.22Z" fill="#E6E6E6"/>
<path d="M644.837 425.405L645.568 426.019C644.853 426.873 644.722 428.091 645.244 429.054C670.594 475.708 715.918 479.368 724.746 479.627C725.596 479.676 726.393 479.294 726.932 478.639L768.667 427.992C769.258 427.274 769.44 426.358 769.168 425.474C768.894 424.586 768.22 423.924 767.318 423.662C738.973 415.383 709.233 377.036 700.794 365.479C700.3 364.804 699.538 364.399 698.703 364.371C697.845 364.363 697.064 364.7 696.518 365.349C682.052 389.373 665.779 410.669 645.568 426.019L644.837 425.405Z" fill="white"/>
<path d="M666.585 436.947L704.415 398.397C707.001 395.761 702.95 391.706 700.361 394.344L662.53 432.895C659.944 435.53 663.996 439.586 666.585 436.947Z" fill="#E6E6E6"/>
<path d="M689.418 447.808C699.859 438.455 708.932 427.626 716.361 415.743C718.322 412.607 713.363 409.727 711.41 412.851C704.227 424.339 695.456 434.715 685.363 443.756C682.61 446.223 686.676 450.264 689.418 447.808H689.418H689.418Z" fill="#E6E6E6"/>
<path d="M709.997 460.813C719.503 450.289 727.594 438.544 733.965 425.874C735.617 422.587 730.672 419.682 729.013 422.982C722.858 435.223 715.128 446.591 705.942 456.761C703.475 459.493 707.517 463.558 709.997 460.813Z" fill="#E6E6E6"/>
<path d="M1101.69 845.531C1101.49 845.531 1101.28 845.523 1101.07 845.51C1087.36 844.63 1040.44 837.996 1012.41 789.571C1010.34 785.997 1010.75 781.449 1013.43 778.257H1013.43L1065.91 715.774C1067.85 713.453 1070.78 712.185 1073.74 712.237C1076.78 712.309 1080.68 713.209 1081.42 716.16C1087.47 740.139 1113.5 771.276 1147.42 775.406C1150.61 775.795 1152.54 779.102 1153.32 782.203C1154.09 785.277 1153.38 788.446 1151.36 790.898L1109.32 841.912C1107.43 844.206 1104.62 845.531 1101.69 845.531Z" fill="#E6E6E6"/>
<path d="M1021.38 780.715L1022.11 781.329C1021.39 782.184 1021.26 783.402 1021.78 784.364C1047.13 831.019 1092.46 834.679 1101.28 834.938C1102.14 834.987 1102.93 834.604 1103.47 833.949L1145.21 783.303C1145.8 782.585 1145.98 781.669 1145.71 780.784C1145.43 779.896 1144.8 779.017 1143.86 778.973C1107.78 777.281 1078.8 738.287 1077.33 720.79C1077.26 719.956 1076.08 719.71 1075.24 719.682C1074.38 719.673 1073.6 720.01 1073.06 720.659L1022.11 781.329L1021.38 780.715Z" fill="white"/>
<path d="M1043.12 792.258L1080.95 753.707C1083.54 751.072 1079.49 747.016 1076.9 749.655L1039.07 788.205C1036.48 790.84 1040.53 794.896 1043.12 792.258Z" fill="#E6E6E6"/>
<path d="M1065.96 803.119C1076.4 793.766 1085.47 782.937 1092.9 771.054C1094.86 767.917 1089.9 765.037 1087.95 768.162C1080.77 779.65 1072 790.025 1061.9 799.066C1059.15 801.533 1063.21 805.575 1065.96 803.119H1065.96V803.119Z" fill="#E6E6E6"/>
<path d="M1086.54 816.124C1096.04 805.6 1104.13 793.854 1110.5 781.185C1112.16 777.898 1107.21 774.993 1105.55 778.292C1099.4 790.533 1091.67 801.901 1082.48 812.071C1080.01 814.803 1084.06 818.868 1086.54 816.124Z" fill="#E6E6E6"/>
<path d="M944.497 1178.59L921.83 1178.59L911.047 1091.21L944.501 1091.21L944.497 1178.59Z" fill="#FFB6B6"/>
<path d="M866.836 1178.08C866.13 1179.27 865.758 1183.1 865.758 1184.48C865.758 1188.73 869.202 1192.17 873.451 1192.17H943.649C946.547 1192.17 948.897 1189.82 948.897 1186.93V1184.01C948.897 1184.01 952.37 1175.23 945.22 1164.41C945.22 1164.41 936.334 1172.88 923.057 1159.61L919.141 1152.52L890.799 1173.24L875.089 1175.17C871.652 1175.59 868.604 1175.1 866.836 1178.08H866.836Z" fill="#3F39B5"/>
<path d="M1153.81 1133.88L1134.5 1145.75L1079.51 1076.97L1108 1059.46L1153.81 1133.88Z" fill="#FFB6B6"/>
<path d="M1087.39 1174.12C1087.42 1175.5 1089.11 1178.96 1089.83 1180.14C1092.06 1183.75 1096.8 1184.88 1100.42 1182.66L1160.21 1145.89C1162.68 1144.38 1163.45 1141.15 1161.93 1138.68L1160.4 1136.19C1160.4 1136.19 1158.75 1126.89 1146.99 1121.42C1146.99 1121.42 1143.86 1133.29 1125.6 1128.94L1118.54 1124.96L1105.26 1157.44L1092.9 1167.32C1090.19 1169.48 1087.34 1170.66 1087.39 1174.12L1087.39 1174.12L1087.39 1174.12Z" fill="#3F39B5"/>
<path d="M1011.34 769.893C1010.22 765.002 1010.3 760.253 1011.36 756.319L997.698 710.419L1019.94 704.394L1031.4 751.603C1034.05 754.665 1036.2 758.888 1037.32 763.78C1039.88 774.954 1036.14 785.382 1028.97 787.07C1021.8 788.758 1013.9 781.068 1011.34 769.893L1011.34 769.893V769.893Z" fill="#FFB6B6"/>
<path d="M884.815 463.94C884.815 463.94 920.652 448.35 940.662 470.878C958.876 491.383 995.849 553.086 992.052 559.089L1028.45 730.984L1001.47 739.291L929.9 541.572L884.815 463.94H884.815V463.94Z" fill="#C09AEC"/>
<path d="M845.347 718.682L863.812 933.976L908.434 1133.89L956.133 1129.28L933.053 910.908L947.18 716.843L845.347 718.682Z" fill="#3F39B5"/>
<path d="M849.165 765.397L964.17 948.375L1095.39 1105.71L1135.69 1079.8L1015.17 896.194C996.726 815.32 976.299 740.455 938.864 717.184L849.165 765.397L849.165 765.397V765.397Z" fill="#3F39B5"/>
<path d="M855.876 766.292C850.481 766.292 845.257 764.393 840.999 760.785C835.284 755.94 832.307 748.878 832.829 741.409L842.862 645.211L839.03 540.163L839.054 540.05L850.965 482.965C851.083 481.151 851.463 479.231 852.077 477.387L869.67 424.524C872.834 415.015 881.694 408.627 891.721 408.627H907.277C915.067 408.627 922.296 412.493 926.615 418.97L940.234 439.386C941.139 440.742 941.902 442.199 942.503 443.714L972.568 519.55C973.522 521.957 974.065 524.489 974.181 527.076L983.508 737.541C983.82 744.528 981.007 751.215 975.794 755.886C970.612 760.531 963.698 762.585 956.842 761.527C917.583 755.468 883.223 760.423 861.309 765.648C859.499 766.079 857.677 766.292 855.876 766.292V766.292L855.876 766.292Z" fill="#C09AEC"/>
<path d="M851.502 557.212L825.344 537.221C825.344 537.221 837.654 428.036 869.967 428.036C902.279 428.036 919.205 409.582 919.205 409.582C919.205 409.582 1034.61 571.052 1002.29 589.506C969.982 607.96 925.359 598.733 925.359 598.733L909.643 460.794C907.712 453.503 897.671 452.713 894.622 459.613L851.502 557.212L851.502 557.212L851.502 557.212Z" fill="#3F3D56"/>
<path d="M894.534 403.922C919.236 403.922 939.261 383.909 939.261 359.221C939.261 334.534 919.236 314.521 894.534 314.521C869.833 314.521 849.808 334.534 849.808 359.221C849.808 383.909 869.833 403.922 894.534 403.922Z" fill="#FFB6B6"/>
<path d="M929.953 393.013C925.919 394.519 919.733 396.86 915.699 398.365C911.936 390.869 916.546 386.979 917.025 378.605C917.184 375.811 917.588 373.014 917.356 370.224C917.124 367.435 916.166 364.572 914.06 362.726C910.84 359.903 905.476 360.362 902.359 363.298C899.241 366.235 898.352 371.087 899.626 375.174C887.363 369.876 879.44 355.976 881.134 342.731C877.471 341.297 873.717 339.842 869.785 339.733C865.853 339.623 861.64 341.122 859.544 344.45C858.075 346.783 857.782 349.745 856.133 351.955C853.453 355.546 847.663 355.824 844.105 353.1C840.547 350.376 839.185 345.426 839.944 341.011C840.703 336.596 835.182 327.587 838.273 324.343C840.381 322.13 850.846 325.266 853.199 323.314C855.345 321.533 857.499 319.746 859.865 318.268C862.867 316.393 866.192 315.035 869.65 314.272C872.92 313.55 876.282 313.36 879.626 313.173C883.021 312.983 887.717 306.227 891.112 306.036C901.108 305.477 910.041 311.509 919.631 314.381C929.221 317.253 935.254 325.5 940.563 333.983C948.124 346.067 945.554 359.308 940.347 370.862C939.06 373.718 943.379 376.719 942.739 379.786C942.145 382.636 939.473 384.701 938.848 387.545C938.314 389.976 935.157 387.159 934.403 389.532C933.753 391.58 931.837 393.026 929.789 393.679C927.742 394.333 925.549 394.32 923.399 394.3" fill="#3F39B5"/>
<path d="M920.352 408.435L921.929 409.582L925.903 412.473C937.851 421.167 936.74 439.316 923.821 446.489L907.665 420.698" fill="#3F3D56"/>
<path d="M1180.29 1161.89C1184.24 1162.14 1186.42 1157.23 1183.43 1154.38L1183.14 1153.19C1183.18 1153.1 1183.22 1153.01 1183.26 1152.91C1187.25 1143.39 1200.78 1143.46 1204.74 1152.99C1208.26 1161.45 1212.73 1169.92 1213.83 1178.87C1214.33 1182.82 1214.1 1186.84 1213.23 1190.71C1221.46 1172.73 1225.8 1153.1 1225.8 1133.36C1225.8 1128.4 1225.52 1123.44 1224.97 1118.5C1224.51 1114.45 1223.88 1110.43 1223.07 1106.44C1218.66 1084.9 1209.12 1064.38 1195.35 1047.24C1188.73 1043.63 1183.22 1037.98 1179.88 1031.2C1178.69 1028.76 1177.75 1026.13 1177.3 1023.46C1178.06 1023.55 1180.14 1012.09 1179.57 1011.39C1180.62 1009.8 1182.5 1009.01 1183.65 1007.45C1189.35 999.728 1197.2 1001.08 1201.3 1011.57C1210.06 1015.99 1210.15 1023.32 1204.77 1030.36C1201.35 1034.85 1200.88 1040.91 1197.88 1045.71C1198.19 1046.11 1198.51 1046.49 1198.82 1046.89C1204.48 1054.14 1209.38 1061.94 1213.5 1070.13C1212.34 1061.03 1214.06 1050.06 1216.99 1042.99C1220.33 1034.93 1226.6 1028.15 1232.11 1021.18C1238.74 1012.82 1252.32 1016.47 1253.49 1027.07C1253.5 1027.17 1253.51 1027.28 1253.52 1027.38C1252.7 1027.84 1251.9 1028.33 1251.12 1028.85C1246.65 1031.8 1248.19 1038.73 1253.49 1039.55L1253.61 1039.57C1253.31 1042.52 1252.81 1045.44 1252.07 1048.32C1259.14 1075.66 1243.87 1085.62 1222.05 1086.07C1221.57 1086.32 1221.1 1086.56 1220.62 1086.8C1222.83 1093.02 1224.6 1099.4 1225.91 1105.86C1227.08 1111.57 1227.89 1117.35 1228.35 1123.15C1228.92 1130.46 1228.87 1137.82 1228.25 1145.12L1228.29 1144.86C1229.86 1136.82 1234.23 1129.3 1240.57 1124.1C1250.03 1116.34 1263.38 1113.48 1273.58 1107.24C1278.49 1104.24 1284.78 1108.12 1283.92 1113.81L1283.88 1114.08C1282.36 1114.7 1280.88 1115.41 1279.45 1116.21C1278.63 1116.68 1277.83 1117.17 1277.04 1117.68C1272.57 1120.64 1274.12 1127.57 1279.41 1128.39L1279.53 1128.4C1279.62 1128.42 1279.69 1128.43 1279.78 1128.44C1277.18 1134.62 1273.55 1140.36 1269 1145.31C1264.58 1169.18 1245.58 1171.45 1225.25 1164.49H1225.24C1223.02 1174.17 1219.77 1183.62 1215.6 1192.62H1181.15C1181.03 1192.24 1180.92 1191.85 1180.81 1191.46C1183.99 1191.66 1187.2 1191.48 1190.34 1190.9C1187.78 1187.76 1185.23 1184.6 1182.67 1181.47C1182.61 1181.41 1182.56 1181.35 1182.51 1181.29C1181.22 1179.68 1179.91 1178.09 1178.61 1176.49L1178.61 1176.48C1178.53 1171.56 1179.12 1166.65 1180.29 1161.89L1180.29 1161.89L1180.29 1161.89V1161.89Z" fill="#F2F2F2"/>
<path d="M584.803 1192.73C584.803 1193.99 585.816 1195 587.077 1195H1281.46C1282.72 1195 1283.73 1193.99 1283.73 1192.73C1283.73 1191.47 1282.72 1190.45 1281.46 1190.45H587.077C585.816 1190.45 584.803 1191.47 584.803 1192.73Z" fill="#CCCCCC"/>
<path d="M694.788 461.634C698.822 464.294 701.92 467.644 703.804 471.062L743.83 493.978L732.362 512.694L692.994 487.433C689.109 487.045 684.809 485.516 680.775 482.856C671.561 476.779 667.228 467.101 671.097 461.241C674.967 455.38 685.574 455.556 694.788 461.633H694.788L694.788 461.634Z" fill="#FFB6B6"/>
<path d="M883.109 437.476C908.633 421.832 934.283 457.659 911.588 477.179L911.511 477.246L820.83 562.485L712.308 508.925L723.039 480.007L807.117 513.294L870.188 447.856C874.578 443.463 878.898 440.058 883.109 437.476H883.109Z" fill="#C09AEC"/>
<path d="M345.537 579.803C343.428 579.803 341.714 581.516 341.714 583.623V642.842C341.714 644.949 343.428 646.662 345.537 646.662C347.645 646.662 349.359 644.949 349.359 642.842V583.623C349.359 581.516 347.645 579.803 345.537 579.803Z" fill="#3F3D56"/>
<path d="M383.002 636.864C396.158 636.864 406.823 626.43 406.823 613.558C406.823 600.686 396.158 590.251 383.002 590.251C369.845 590.251 359.18 600.686 359.18 613.558C359.18 626.43 369.845 636.864 383.002 636.864Z" fill="#C09AEC"/>
<path d="M573.972 605.584H445.748C441.349 605.584 437.77 602.007 437.77 597.611C437.77 593.215 441.349 589.638 445.748 589.638H573.972C578.37 589.638 581.95 593.215 581.95 597.611C581.95 602.007 578.37 605.584 573.972 605.584Z" fill="#F2F2F2"/>
<path d="M674.038 632.571H445.748C441.349 632.571 437.77 628.994 437.77 624.597C437.77 620.201 441.349 616.624 445.748 616.624H674.038C678.437 616.624 682.016 620.201 682.016 624.597C682.016 628.994 678.437 632.571 674.038 632.571H674.038Z" fill="#F2F2F2"/>
<path d="M238.822 762.904C251.978 762.904 262.644 752.47 262.644 739.598C262.644 726.726 251.978 716.291 238.822 716.291C225.665 716.291 215 726.726 215 739.598C215 752.47 225.665 762.904 238.822 762.904Z" fill="#C09AEC"/>
<path d="M429.792 731.624H301.568C297.169 731.624 293.59 728.047 293.59 723.651C293.59 719.255 297.169 715.678 301.568 715.678H429.792C434.191 715.678 437.77 719.255 437.77 723.651C437.77 728.047 434.191 731.624 429.792 731.624Z" fill="#F2F2F2"/>
<path d="M462.563 839.334C475.719 839.334 486.385 828.899 486.385 816.027C486.385 803.155 475.719 792.721 462.563 792.721C449.406 792.721 438.741 803.155 438.741 816.027C438.741 828.899 449.406 839.334 462.563 839.334Z" fill="#C09AEC"/>
<path d="M753.599 835.041H525.309C520.91 835.041 517.331 831.464 517.331 827.068C517.331 822.672 520.91 819.095 525.309 819.095H753.599C757.998 819.095 761.577 822.672 761.577 827.068C761.577 831.464 757.998 835.041 753.599 835.041H753.599Z" fill="#F2F2F2"/>
<path d="M697.199 403.54C710.355 403.54 721.021 393.105 721.021 380.233C721.021 367.361 710.355 356.927 697.199 356.927C684.042 356.927 673.377 367.361 673.377 380.233C673.377 393.105 684.042 403.54 697.199 403.54Z" fill="#C09AEC"/>
<path d="M1135.69 794.264C1148.85 794.264 1159.51 783.829 1159.51 770.957C1159.51 758.085 1148.85 747.65 1135.69 747.65C1122.53 747.65 1111.87 758.085 1111.87 770.957C1111.87 783.829 1122.53 794.264 1135.69 794.264Z" fill="#C09AEC"/>
<circle cx="865" cy="369" r="5" fill="black"/>
<defs>
<clipPath id="clip0_29_153">
<rect width="870" height="520.139" fill="white" transform="translate(249 571)"/>
</clipPath>
</defs>
</svg>
