<svg width="1500" height="1500" viewBox="0 0 1500 1500" fill="none" xmlns="http://www.w3.org/2000/svg">
<g clip-path="url(#clip0_6_101)">
<path d="M1328.49 1043.82L779.113 1229.46C772.271 1231.76 764.795 1231.26 758.325 1228.06C751.854 1224.86 746.918 1219.22 744.599 1212.39L490.123 459.581C487.819 452.74 488.323 445.266 491.525 438.797C494.726 432.327 500.363 427.392 507.2 425.074L1056.57 239.435C1063.42 237.132 1070.89 237.636 1077.36 240.837C1083.83 244.038 1088.77 249.674 1091.09 256.509L1345.56 1009.32C1347.87 1016.16 1347.36 1023.63 1344.16 1030.1C1340.96 1036.57 1335.32 1041.5 1328.49 1043.82Z" fill="#E6E6E6"/>
<path d="M1314.47 1029.92L781.824 1209.9C777.201 1211.46 772.15 1211.12 767.778 1208.96C763.406 1206.8 760.071 1202.99 758.504 1198.37L509.682 462.291C508.126 457.67 508.466 452.619 510.63 448.248C512.793 443.877 516.602 440.542 521.221 438.976L1053.86 258.991C1058.49 257.435 1063.54 257.776 1067.91 259.939C1072.28 262.101 1075.62 265.91 1077.18 270.528L1326 1006.61C1327.56 1011.23 1327.22 1016.28 1325.06 1020.65C1322.89 1025.02 1319.09 1028.35 1314.47 1029.92Z" fill="white"/>
<path d="M1180.57 1259.79H600.663C593.444 1259.78 586.523 1256.91 581.418 1251.81C576.314 1246.71 573.442 1239.79 573.434 1232.57V437.93C573.442 430.713 576.314 423.793 581.418 418.689C586.523 413.585 593.444 410.715 600.663 410.707H1180.57C1187.78 410.715 1194.71 413.585 1199.81 418.689C1204.92 423.793 1207.79 430.713 1207.79 437.93V1232.57C1207.79 1239.79 1204.92 1246.71 1199.81 1251.81C1194.71 1256.91 1187.78 1259.78 1180.57 1259.79Z" fill="#CCCCCC"/>
<path d="M1171.73 1242.13H609.494C604.617 1242.13 599.94 1240.19 596.491 1236.74C593.042 1233.29 591.102 1228.62 591.096 1223.74V446.759C591.102 441.883 593.042 437.207 596.491 433.759C599.94 430.31 604.617 428.37 609.494 428.365H1171.73C1176.61 428.37 1181.29 430.31 1184.74 433.759C1188.19 437.207 1190.13 441.883 1190.13 446.759V1223.74C1190.13 1228.62 1188.19 1233.29 1184.74 1236.74C1181.29 1240.19 1176.61 1242.13 1171.73 1242.13Z" fill="white"/>
<path d="M1051.96 648.77H680.613C677.485 648.77 674.485 647.527 672.273 645.316C670.061 643.104 668.818 640.104 668.818 636.977C668.818 633.849 670.061 630.849 672.273 628.637C674.485 626.426 677.485 625.183 680.613 625.183H1051.96C1055.09 625.183 1058.09 626.426 1060.3 628.637C1062.51 630.849 1063.75 633.849 1063.75 636.977C1063.75 640.104 1062.51 643.104 1060.3 645.316C1058.09 647.527 1055.09 648.77 1051.96 648.77Z" fill="#CCCCCC"/>
<path d="M1100.62 688.572H680.613C679.064 688.572 677.531 688.267 676.099 687.674C674.668 687.081 673.368 686.213 672.273 685.118C671.177 684.022 670.309 682.722 669.716 681.292C669.123 679.861 668.818 678.327 668.818 676.779C668.818 675.23 669.123 673.696 669.716 672.265C670.309 670.835 671.177 669.535 672.273 668.439C673.368 667.344 674.668 666.476 676.099 665.883C677.531 665.29 679.064 664.985 680.613 664.985H1100.62C1103.74 664.985 1106.74 666.228 1108.96 668.439C1111.17 670.651 1112.41 673.651 1112.41 676.779C1112.41 679.906 1111.17 682.906 1108.96 685.118C1106.74 687.329 1103.74 688.572 1100.62 688.572Z" fill="#CCCCCC"/>
<path d="M1051.96 827.142H680.613C677.487 827.138 674.49 825.894 672.281 823.683C670.072 821.472 668.831 818.474 668.831 815.349C668.831 812.223 670.072 809.225 672.281 807.014C674.49 804.803 677.487 803.559 680.613 803.555H1051.96C1055.09 803.555 1058.09 804.798 1060.3 807.01C1062.51 809.221 1063.75 812.221 1063.75 815.349C1063.75 818.476 1062.51 821.476 1060.3 823.688C1058.09 825.899 1055.09 827.142 1051.96 827.142Z" fill="#C09AEC"/>
<path d="M1100.62 866.944H680.613C677.487 866.94 674.49 865.696 672.281 863.485C670.072 861.274 668.831 858.276 668.831 855.151C668.831 852.025 670.072 849.027 672.281 846.816C674.49 844.605 677.487 843.361 680.613 843.357H1100.62C1103.74 843.357 1106.74 844.6 1108.96 846.812C1111.17 849.023 1112.41 852.023 1112.41 855.151C1112.41 858.278 1111.17 861.278 1108.96 863.49C1106.74 865.701 1103.74 866.944 1100.62 866.944Z" fill="#CCCCCC"/>
<path d="M1051.96 1005.51H680.613C677.487 1005.51 674.49 1004.27 672.281 1002.06C670.072 999.844 668.831 996.846 668.831 993.721C668.831 990.595 670.072 987.598 672.281 985.386C674.49 983.175 677.487 981.931 680.613 981.927H1051.96C1055.09 981.927 1058.09 983.17 1060.3 985.382C1062.51 987.593 1063.75 990.593 1063.75 993.721C1063.75 996.848 1062.51 999.848 1060.3 1002.06C1058.09 1004.27 1055.09 1005.51 1051.96 1005.51Z" fill="#CCCCCC"/>
<path d="M1100.62 1045.32H680.613C677.485 1045.32 674.485 1044.07 672.273 1041.86C670.061 1039.65 668.818 1036.65 668.818 1033.52C668.818 1030.39 670.061 1027.4 672.273 1025.18C674.485 1022.97 677.485 1021.73 680.613 1021.73H1100.62C1103.74 1021.73 1106.74 1022.97 1108.96 1025.18C1111.17 1027.4 1112.41 1030.39 1112.41 1033.52C1112.41 1036.65 1111.17 1039.65 1108.96 1041.86C1106.74 1044.07 1103.74 1045.32 1100.62 1045.32Z" fill="#CCCCCC"/>
<path d="M453.979 783.398H368.612C366.856 783.396 365.173 782.698 363.931 781.456C362.689 780.215 361.991 778.531 361.989 776.776V739.987C361.989 726.913 367.184 714.374 376.431 705.129C385.677 695.884 398.219 690.69 411.295 690.69C424.372 690.69 436.914 695.884 446.16 705.129C455.407 714.374 460.602 726.913 460.602 739.987V776.776C460.6 778.531 459.901 780.215 458.66 781.456C457.418 782.698 455.735 783.396 453.979 783.398Z" fill="#2F2E41"/>
<path d="M585.734 975.394C583.574 975.281 581.464 974.696 579.554 973.68C577.643 972.664 575.979 971.241 574.679 969.513C573.378 967.784 572.472 965.791 572.025 963.674C571.578 961.558 571.6 959.369 572.091 957.262L527.604 929.209L552.503 917.939L590.931 946.306C594.417 947.365 597.393 949.665 599.296 952.771C601.198 955.877 601.896 959.573 601.255 963.158C600.614 966.743 598.681 969.969 595.82 972.225C592.96 974.48 589.371 975.608 585.734 975.394Z" fill="#FFB8B8"/>
<path d="M555.036 952.507C553.523 952.366 552.083 951.795 550.885 950.861L428.503 856.017L412.724 827.959C411.197 825.259 410.512 822.166 410.756 819.075C410.999 815.984 412.16 813.036 414.091 810.61C415.426 808.922 417.096 807.529 418.996 806.517C420.896 805.506 422.984 804.897 425.13 804.73C427.276 804.564 429.433 804.842 431.466 805.548C433.5 806.253 435.365 807.372 436.946 808.832L573.355 919.448C574.238 920.045 574.992 920.811 575.574 921.703C576.156 922.595 576.554 923.594 576.744 924.642C576.935 925.69 576.914 926.765 576.683 927.804C576.453 928.844 576.017 929.827 575.401 930.695L562.323 949.159C561.702 950.043 560.906 950.791 559.986 951.357C559.065 951.923 558.038 952.295 556.969 952.45C556.329 952.546 555.68 952.565 555.036 952.507Z" fill="#3F39B5"/>
<path d="M266.617 1224.05L283.344 1230.82L317.41 1169.53L292.723 1159.54L266.617 1224.05Z" fill="#FFB8B8"/>
<path d="M264.56 1216.86L297.501 1230.19L297.502 1230.19C300.259 1231.31 302.769 1232.95 304.889 1235.04C307.009 1237.12 308.698 1239.61 309.858 1242.34C311.019 1245.08 311.629 1248.02 311.653 1250.99C311.677 1253.97 311.116 1256.92 310 1259.67L309.724 1260.35L255.79 1238.53L264.56 1216.86Z" fill="#2F2E41"/>
<path d="M461.524 1242.87L479.569 1242.86L488.154 1173.28L461.521 1173.28L461.524 1242.87Z" fill="#FFB8B8"/>
<path d="M456.922 1236.98L492.458 1236.97H492.459C495.433 1236.97 498.378 1237.56 501.126 1238.7C503.873 1239.84 506.37 1241.5 508.473 1243.61C510.576 1245.71 512.244 1248.2 513.382 1250.95C514.52 1253.7 515.106 1256.64 515.106 1259.62V1260.35L456.923 1260.35L456.922 1236.98Z" fill="#2F2E41"/>
<path d="M476.391 1203.53C469.224 1203.53 462.196 1200.6 458.318 1198.66C457.313 1198.17 456.435 1197.44 455.754 1196.55C455.072 1195.66 454.605 1194.63 454.387 1193.53L416.353 1001.8L317.681 1186.38C316.794 1188.04 315.303 1189.3 313.516 1189.89C292.265 1196.99 280.675 1185.82 276.677 1180.69C275.863 1179.64 275.356 1178.38 275.211 1177.06C275.067 1175.74 275.289 1174.4 275.855 1173.2L321.554 1073.94L349.186 979.654L377.115 910.652L377.725 910.717L471.119 920.546L482.476 982.991L493.913 1190.91C494.015 1192.57 493.543 1194.21 492.576 1195.56C490.747 1198.12 488.312 1200.19 485.487 1201.58C482.662 1202.97 479.537 1203.64 476.391 1203.53Z" fill="#3F39B5"/>
<path d="M423.464 782.839C443.429 782.839 459.614 766.657 459.614 746.696C459.614 726.735 443.429 710.553 423.464 710.553C403.499 710.553 387.314 726.735 387.314 746.696C387.314 766.657 403.499 782.839 423.464 782.839Z" fill="#FFB8B8"/>
<path d="M436.036 949.249C420.298 949.249 400.825 940.04 377.956 921.748L377.567 921.435L393.736 793.904L394.49 793.877C417.618 793.041 436.438 798.912 452.02 811.868L452.154 812.007L464.789 828.248L464.795 828.545L466.576 928.299L466.531 928.44C464.857 933.006 462.158 937.126 458.639 940.483C455.121 943.84 450.879 946.344 446.24 947.803C442.928 948.782 439.49 949.27 436.036 949.249Z" fill="#C09AEC"/>
<path d="M459.314 1008.87C457.547 1008.87 455.83 1008.28 454.43 1007.2C453.029 1006.13 452.023 1004.62 451.566 1002.91L429.37 918.901L415.309 995.44C414.94 997.471 413.798 999.28 412.124 1000.49C410.45 1001.7 408.373 1002.21 406.329 1001.92L345.101 993.38C343.934 993.217 342.817 992.799 341.83 992.155C340.843 991.51 340.011 990.657 339.393 989.654C338.774 988.651 338.385 987.524 338.252 986.353C338.12 985.182 338.247 983.997 338.626 982.881L369.597 891.614L362.664 838.14C361.95 832.634 362.39 827.04 363.954 821.712C365.519 816.385 368.175 811.441 371.753 807.195C375.331 802.949 379.753 799.493 384.739 797.047C389.724 794.601 395.164 793.218 400.713 792.987L401.333 792.963L430.783 863.975L435.467 845.243L442.797 804.924L443.892 805.558C454.24 811.523 462.749 820.217 468.49 830.691C474.23 841.164 476.98 853.014 476.44 864.944L474.583 907.648L491.037 994.839C491.426 996.922 490.975 999.075 489.782 1000.83C488.588 1002.58 486.749 1003.79 484.668 1004.19L460.804 1008.73C460.313 1008.82 459.814 1008.87 459.314 1008.87Z" fill="#3F39B5"/>
<path d="M472.266 743.666H420.067L419.532 736.173L416.855 743.666H408.818L407.757 728.815L402.453 743.666H386.9V742.93C386.912 732.591 391.025 722.679 398.337 715.368C405.649 708.058 415.563 703.946 425.903 703.934H433.263C443.604 703.946 453.518 708.058 460.83 715.368C468.142 722.679 472.255 732.591 472.266 742.93V743.666Z" fill="#2F2E41"/>
<path d="M1326.05 1262H154.472C154.081 1262 153.707 1261.84 153.431 1261.57C153.155 1261.29 153 1260.92 153 1260.53C153 1260.14 153.155 1259.76 153.431 1259.49C153.707 1259.21 154.081 1259.06 154.472 1259.06H1326.05C1326.44 1259.06 1326.82 1259.21 1327.09 1259.49C1327.37 1259.76 1327.52 1260.14 1327.52 1260.53C1327.52 1260.92 1327.37 1261.29 1327.09 1261.57C1326.82 1261.84 1326.44 1262 1326.05 1262Z" fill="#CCCCCC"/>
<path d="M437.29 968.007C437.287 970.367 437.792 972.701 438.771 974.849C439.749 976.997 441.178 978.909 442.961 980.457C444.743 982.005 446.837 983.151 449.102 983.819C451.366 984.487 453.748 984.66 456.085 984.327C458.241 989.275 461.796 993.486 466.311 996.443C470.827 999.401 476.108 1000.98 481.507 1000.98C485.148 1000.98 488.754 1000.26 492.118 998.866C495.482 997.472 498.539 995.43 501.114 992.856C503.689 990.281 505.732 987.225 507.125 983.862C508.519 980.498 509.236 976.893 509.236 973.252V949.23C509.236 943.047 504.223 940.978 498.039 940.978H464.975C458.791 940.978 453.777 943.047 453.777 949.23V951.522C449.406 951.527 445.215 953.266 442.124 956.356C439.033 959.446 437.295 963.636 437.29 968.007ZM441.786 968.007C441.79 964.828 443.055 961.781 445.303 959.534C447.551 957.286 450.598 956.022 453.777 956.018V973.252C453.777 975.511 454.053 977.762 454.598 979.954C454.326 979.973 454.054 979.996 453.777 979.996C450.598 979.992 447.551 978.728 445.303 976.48C443.055 974.233 441.79 971.185 441.786 968.007H441.786Z" fill="#C09AEC"/>
<path d="M450.568 964.043C449.562 962.128 448.148 960.456 446.427 959.146C444.705 957.836 442.717 956.919 440.602 956.46C438.488 956.002 436.298 956.012 434.188 956.491C432.078 956.969 430.099 957.905 428.389 959.231L384.304 930.552L384.472 957.878L426.31 980.923C428.729 983.646 432.063 985.388 435.681 985.818C439.298 986.248 442.948 985.336 445.938 983.255C448.928 981.175 451.051 978.07 451.904 974.529C452.757 970.988 452.282 967.257 450.568 964.043H450.568Z" fill="#FFB8B8"/>
<path d="M402.832 980.722C401.076 980.722 399.391 980.024 398.149 978.782L342.013 922.657C340.219 920.875 338.911 918.665 338.211 916.236C337.511 913.807 337.443 911.239 338.014 908.777C342.819 887.773 354.529 837.588 359.472 825.232C363.08 815.941 369.759 808.163 378.398 803.19L378.619 803.079L396.391 806.362L397.957 861.168L376.489 907.162L422.137 950.245C423.338 951.371 424.074 952.906 424.202 954.547C424.329 956.189 423.838 957.818 422.825 959.117L408.067 978.156C407.491 978.899 406.764 979.511 405.933 979.951C405.102 980.391 404.187 980.65 403.249 980.709C403.11 980.718 402.971 980.722 402.832 980.722Z" fill="#3F39B5"/>
<path d="M481.445 948.559C492.825 948.559 502.05 947.241 502.05 945.616C502.05 943.991 492.825 942.673 481.445 942.673C470.065 942.673 460.839 943.991 460.839 945.616C460.839 947.241 470.065 948.559 481.445 948.559Z" fill="#2F2E41"/>
<circle cx="411" cy="760" r="4" fill="#3F3D56"/>
<circle cx="441" cy="760" r="4" fill="#3F39B5"/>
<g opacity="0.7">
<path opacity="0.7" d="M486.313 404.243H308.227L309.46 320.684L360.391 312.238H432.396L485.08 318.22L486.313 404.243Z" fill="url(#paint0_linear_6_101)"/>
</g>
<path d="M483.847 403.19H310.692L311.925 321.737L360.554 313.292H433.273L482.614 319.273L483.847 403.19Z" fill="#EEEEEE"/>
<g opacity="0.7">
<path opacity="0.7" d="M377.071 282.33H364.077V308.018H377.071V282.33Z" fill="url(#paint1_linear_6_101)"/>
</g>
<g opacity="0.7">
<path opacity="0.7" d="M364.071 340.705V312.94H307.628L298.043 340.705V343.55H364.428V340.705H364.071Z" fill="url(#paint2_linear_6_101)"/>
</g>
<path d="M364.077 340.735H298.744L308.227 313.292H364.077V340.735Z" fill="#C09AEC"/>
<path opacity="0.1" d="M364.077 340.735H298.744L308.227 313.292H364.077V340.735Z" fill="#3F39B5"/>
<path d="M364.428 340.735H298.744V343.55H364.428V340.735Z" fill="#C09AEC"/>
<g opacity="0.7">
<path opacity="0.7" d="M485.654 312.589H429.06V340.668H428.704V343.55H495.27V340.668L485.654 312.589Z" fill="url(#paint3_linear_6_101)"/>
</g>
<path d="M429.054 340.735H494.387L484.905 313.292H429.054V340.735Z" fill="#C09AEC"/>
<path opacity="0.1" d="M429.054 340.735H494.387L484.905 313.292H429.054V340.735Z" fill="#3F39B5"/>
<path d="M428.703 343.55H494.387V340.735H428.703V343.55Z" fill="#C09AEC"/>
<path opacity="0.5" d="M351.784 354.635H316.307V376.8H351.784V354.635Z" fill="#C09AEC"/>
<path opacity="0.1" d="M353.887 375.219H314.198V379.088H353.887V375.219Z" fill="#3F39B5"/>
<path d="M353.887 374.868H314.198V378.737H353.887V374.868Z" fill="#535461"/>
<g opacity="0.1">
<path opacity="0.1" d="M351.784 354.635H316.307V363.432H351.784V354.635Z" fill="#3F39B5"/>
</g>
<path opacity="0.5" d="M477.181 354.635H441.704V376.8H477.181V354.635Z" fill="#C09AEC"/>
<path opacity="0.1" d="M479.284 375.219H439.594V379.088H479.284V375.219Z" fill="#3F39B5"/>
<path d="M479.284 374.868H439.594V378.737H479.284V374.868Z" fill="#535461"/>
<g opacity="0.1">
<path opacity="0.1" d="M477.181 354.635H441.704V363.432H477.181V354.635Z" fill="#3F39B5"/>
</g>
<g opacity="0.7">
<path opacity="0.7" d="M440.005 314.938L396.677 281.374L354.746 314.914L351.458 310.791L396.629 274.666L443.227 310.767L440.005 314.938Z" fill="url(#paint4_linear_6_101)"/>
</g>
<path opacity="0.1" d="M358.281 343.55H311.563V344.077H358.281V343.55Z" fill="#3F39B5"/>
<path opacity="0.1" d="M482.977 343.55H435.732V344.077H482.977V343.55Z" fill="#3F39B5"/>
<path d="M376.721 282.682H364.428V308.012H376.721V282.682Z" fill="#535461"/>
<g opacity="0.7">
<path opacity="0.7" d="M435.733 403.19H357.054V306.783L396.732 305.905L435.733 306.783V403.19Z" fill="url(#paint5_linear_6_101)"/>
</g>
<path d="M434.85 403.19H358.281V306.783L396.569 279.515L434.85 306.783V403.19Z" fill="white"/>
<path d="M406.221 370.818H386.905V403.19H406.221V370.818Z" fill="#535461"/>
<path opacity="0.1" d="M416.411 341.794H376.721V345.663H416.411V341.794Z" fill="#3F39B5"/>
<path opacity="0.5" d="M414.307 321.21H378.83V343.375H414.307V321.21Z" fill="#C09AEC"/>
<path d="M416.411 341.443H376.721V345.312H416.411V341.443Z" fill="#535461"/>
<g opacity="0.1">
<path opacity="0.1" d="M414.307 321.21H378.83V330.007H414.307V321.21Z" fill="#3F39B5"/>
</g>
<path d="M440.005 315.289L396.677 281.725L354.746 315.265L351.458 311.142L396.629 275.017L443.227 311.118L440.005 315.289Z" fill="#C09AEC"/>
<path d="M403.416 388.412C404.191 388.412 404.818 387.783 404.818 387.007C404.818 386.231 404.191 385.603 403.416 385.603C402.642 385.603 402.014 386.231 402.014 387.007C402.014 387.783 402.642 388.412 403.416 388.412Z" fill="#E0E0E0"/>
<g opacity="0.7">
<path opacity="0.7" d="M253.065 335.989H174V405H253.065V335.989Z" fill="url(#paint6_linear_6_101)"/>
</g>
<path d="M252.231 336.757H175.354V404.219H252.231V336.757Z" fill="#EEEEEE"/>
<g opacity="0.7">
<path opacity="0.7" d="M199.499 315.604H189.968V334.439H199.499V315.604Z" fill="url(#paint7_linear_6_101)"/>
</g>
<path d="M199.239 315.865H190.228V334.439H199.239V315.865Z" fill="#535461"/>
<g opacity="0.7">
<path opacity="0.7" d="M242.506 404.225H184.818V333.536L213.913 332.889L242.506 333.536V404.225Z" fill="url(#paint8_linear_6_101)"/>
</g>
<path d="M241.866 404.225H185.719V333.536L213.792 313.54L241.866 333.536V404.225Z" fill="white"/>
<path d="M220.876 380.487H206.709V404.219H220.876V380.487Z" fill="#535461"/>
<path opacity="0.5" d="M226.799 344.113H200.786V360.369H226.799V344.113Z" fill="#C09AEC"/>
<path d="M228.34 358.946H199.239V361.785H228.34V358.946Z" fill="#535461"/>
<g opacity="0.1">
<path opacity="0.1" d="M226.799 344.113H200.786V350.561H226.799V344.113Z" fill="#3F39B5"/>
</g>
<g opacity="0.7">
<path opacity="0.7" d="M245.637 339.518L213.871 314.908L183.126 339.5L180.715 336.473L213.835 309.986L248 336.455L245.637 339.518Z" fill="url(#paint9_linear_6_101)"/>
</g>
<path d="M245.637 339.772L213.871 315.162L183.126 339.754L180.715 336.733L213.835 310.24L248 336.715L245.637 339.772Z" fill="#C09AEC"/>
<path d="M218.815 393.388C219.382 393.388 219.842 392.927 219.842 392.359C219.842 391.79 219.382 391.33 218.815 391.33C218.247 391.33 217.787 391.79 217.787 392.359C217.787 392.927 218.247 393.388 218.815 393.388Z" fill="#E0E0E0"/>
<g opacity="0.7">
<path opacity="0.7" d="M691.633 404.443H545.119L546.128 294.941L588.03 283.874H647.277L690.623 291.714L691.633 404.443Z" fill="url(#paint10_linear_6_101)"/>
</g>
<path d="M689.608 403.063H547.144L548.159 296.322L588.169 285.261H647.997L688.593 293.095L689.608 403.063Z" fill="#EEEEEE"/>
<g opacity="0.7">
<path opacity="0.7" d="M601.755 236.688H591.064V257.823H601.755V236.688Z" fill="url(#paint11_linear_6_101)"/>
</g>
<g opacity="0.7">
<path opacity="0.7" d="M591.064 301.795V278.952H544.623L536.736 301.795V304.137H591.354V301.795H591.064Z" fill="url(#paint12_linear_6_101)"/>
</g>
<path d="M591.064 301.825H537.316L545.119 279.243H591.064V301.825Z" fill="#C09AEC"/>
<path opacity="0.1" d="M591.064 301.825H537.316L545.119 279.243H591.064V301.825Z" fill="#3F39B5"/>
<path d="M591.36 301.825H537.316V304.144H591.36V301.825Z" fill="#C09AEC"/>
<g opacity="0.7">
<path opacity="0.7" d="M691.095 279.243H644.533V302.346H644.237V304.719H699V302.346L691.095 279.243Z" fill="url(#paint13_linear_6_101)"/>
</g>
<path d="M644.527 302.4H698.281L690.478 279.824H644.527V302.4Z" fill="#C09AEC"/>
<path opacity="0.1" d="M644.527 302.4H698.281L690.478 279.824H644.527V302.4Z" fill="#3F39B5"/>
<path d="M644.237 304.719H698.281V302.4H644.237V304.719Z" fill="#C09AEC"/>
<path opacity="0.5" d="M580.947 363.626H551.761V381.861H580.947V363.626Z" fill="#C09AEC"/>
<path opacity="0.1" d="M582.687 380.559H550.033V383.744H582.687V380.559Z" fill="#3F39B5"/>
<path d="M582.687 380.275H550.033V383.459H582.687V380.275Z" fill="#535461"/>
<g opacity="0.1">
<path opacity="0.1" d="M580.947 363.626H551.761V370.86H580.947V363.626Z" fill="#3F39B5"/>
</g>
<path opacity="0.5" d="M684.12 363.626H654.935V381.861H684.12V363.626Z" fill="#C09AEC"/>
<path opacity="0.1" d="M685.855 380.559H653.2V383.744H685.855V380.559Z" fill="#3F39B5"/>
<path d="M685.855 380.275H653.2V383.459H685.855V380.275Z" fill="#535461"/>
<g opacity="0.1">
<path opacity="0.1" d="M684.12 363.626H654.935V370.86H684.12V363.626Z" fill="#3F39B5"/>
</g>
<path opacity="0.5" d="M684.12 321.071H654.935V339.306H684.12V321.071Z" fill="#C09AEC"/>
<path opacity="0.1" d="M685.855 338.01H653.2V341.195H685.855V338.01Z" fill="#3F39B5"/>
<path d="M685.855 337.72H653.2V340.904H685.855V337.72Z" fill="#535461"/>
<g opacity="0.1">
<path opacity="0.1" d="M684.12 321.071H654.935V328.306H684.12V321.071Z" fill="#3F39B5"/>
</g>
<path opacity="0.5" d="M581.817 321.071H552.631V339.306H581.817V321.071Z" fill="#C09AEC"/>
<path opacity="0.1" d="M583.552 338.01H550.897V341.195H583.552V338.01Z" fill="#3F39B5"/>
<path d="M583.552 337.72H550.897V340.904H583.552V337.72Z" fill="#535461"/>
<g opacity="0.1">
<path opacity="0.1" d="M581.817 321.071H552.631V328.306H581.817V321.071Z" fill="#3F39B5"/>
</g>
<g opacity="0.7">
<path opacity="0.7" d="M653.533 267.134L617.892 239.521L583.388 267.116L580.681 263.726L617.85 234L656.186 263.702L653.533 267.134Z" fill="url(#paint14_linear_6_101)"/>
</g>
<path opacity="0.1" d="M586.295 304.137H547.863V304.573H586.295V304.137Z" fill="#3F39B5"/>
<path opacity="0.1" d="M688.889 304.719H650.021V305.155H688.889V304.719Z" fill="#3F39B5"/>
<path d="M601.471 236.979H591.354V257.823H601.471V236.979Z" fill="#535461"/>
<g opacity="0.7">
<path opacity="0.7" d="M650.166 403.577H585.431V263.441L618.08 262.164L650.166 263.441V403.577Z" fill="url(#paint15_linear_6_101)"/>
</g>
<path d="M649.296 403.577H586.295V262.884L617.796 239.152L649.876 263.756L649.296 403.577Z" fill="white"/>
<path d="M625.743 376.945H609.848V403.577H625.743V376.945Z" fill="#535461"/>
<path opacity="0.1" d="M634.126 353.061H601.471V356.246H634.126V353.061Z" fill="#3F39B5"/>
<path opacity="0.5" d="M632.391 336.128H603.206V354.363H632.391V336.128Z" fill="#C09AEC"/>
<path d="M634.126 352.771H601.471V355.955H634.126V352.771Z" fill="#535461"/>
<g opacity="0.1">
<path opacity="0.1" d="M632.391 336.128H603.206V343.362H632.391V336.128Z" fill="#3F39B5"/>
</g>
<path opacity="0.5" d="M632.391 300.378H603.206V318.613H632.391V300.378Z" fill="#C09AEC"/>
<path d="M634.126 317.021H601.471V320.205H634.126V317.021Z" fill="#535461"/>
<g opacity="0.1">
<path opacity="0.1" d="M632.391 300.378H603.206V307.613H632.391V300.378Z" fill="#3F39B5"/>
</g>
<path opacity="0.5" d="M632.391 264.622H603.206V282.857H632.391V264.622Z" fill="#C09AEC"/>
<path d="M634.126 281.271H601.471V284.455H634.126V281.271Z" fill="#535461"/>
<g opacity="0.1">
<path opacity="0.1" d="M632.391 264.622H603.206V271.857H632.391V264.622Z" fill="#3F39B5"/>
</g>
<path d="M653.533 268.152L617.892 240.532L583.388 268.127L580.681 264.737L617.85 235.011L656.186 264.713L653.533 268.152Z" fill="#C09AEC"/>
<path d="M623.434 391.415C624.072 391.415 624.589 390.897 624.589 390.258C624.589 389.62 624.072 389.102 623.434 389.102C622.797 389.102 622.28 389.62 622.28 390.258C622.28 390.897 622.797 391.415 623.434 391.415Z" fill="#E0E0E0"/>
</g>
<defs>
<linearGradient id="paint0_linear_6_101" x1="397.27" y1="404.243" x2="397.27" y2="312.238" gradientUnits="userSpaceOnUse">
<stop stop-color="#808080" stop-opacity="0.25"/>
<stop offset="0.54" stop-color="#808080" stop-opacity="0.12"/>
<stop offset="1" stop-color="#808080" stop-opacity="0.1"/>
</linearGradient>
<linearGradient id="paint1_linear_6_101" x1="370.574" y1="308.012" x2="370.574" y2="282.33" gradientUnits="userSpaceOnUse">
<stop stop-color="#808080" stop-opacity="0.25"/>
<stop offset="0.54" stop-color="#808080" stop-opacity="0.12"/>
<stop offset="1" stop-color="#808080" stop-opacity="0.1"/>
</linearGradient>
<linearGradient id="paint2_linear_6_101" x1="331.235" y1="343.55" x2="331.235" y2="312.94" gradientUnits="userSpaceOnUse">
<stop stop-color="#808080" stop-opacity="0.25"/>
<stop offset="0.54" stop-color="#808080" stop-opacity="0.12"/>
<stop offset="1" stop-color="#808080" stop-opacity="0.1"/>
</linearGradient>
<linearGradient id="paint3_linear_6_101" x1="461.987" y1="343.55" x2="461.987" y2="312.589" gradientUnits="userSpaceOnUse">
<stop stop-color="#808080" stop-opacity="0.25"/>
<stop offset="0.54" stop-color="#808080" stop-opacity="0.12"/>
<stop offset="1" stop-color="#808080" stop-opacity="0.1"/>
</linearGradient>
<linearGradient id="paint4_linear_6_101" x1="397.342" y1="314.938" x2="397.342" y2="274.666" gradientUnits="userSpaceOnUse">
<stop stop-color="#808080" stop-opacity="0.25"/>
<stop offset="0.54" stop-color="#808080" stop-opacity="0.12"/>
<stop offset="1" stop-color="#808080" stop-opacity="0.1"/>
</linearGradient>
<linearGradient id="paint5_linear_6_101" x1="396.393" y1="403.19" x2="396.393" y2="305.905" gradientUnits="userSpaceOnUse">
<stop stop-color="#808080" stop-opacity="0.25"/>
<stop offset="0.54" stop-color="#808080" stop-opacity="0.12"/>
<stop offset="1" stop-color="#808080" stop-opacity="0.1"/>
</linearGradient>
<linearGradient id="paint6_linear_6_101" x1="213.532" y1="405" x2="213.532" y2="335.989" gradientUnits="userSpaceOnUse">
<stop stop-color="#808080" stop-opacity="0.25"/>
<stop offset="0.54" stop-color="#808080" stop-opacity="0.12"/>
<stop offset="1" stop-color="#808080" stop-opacity="0.1"/>
</linearGradient>
<linearGradient id="paint7_linear_6_101" x1="194.73" y1="334.439" x2="194.73" y2="315.604" gradientUnits="userSpaceOnUse">
<stop stop-color="#808080" stop-opacity="0.25"/>
<stop offset="0.54" stop-color="#808080" stop-opacity="0.12"/>
<stop offset="1" stop-color="#808080" stop-opacity="0.1"/>
</linearGradient>
<linearGradient id="paint8_linear_6_101" x1="213.659" y1="404.225" x2="213.659" y2="332.889" gradientUnits="userSpaceOnUse">
<stop stop-color="#808080" stop-opacity="0.25"/>
<stop offset="0.54" stop-color="#808080" stop-opacity="0.12"/>
<stop offset="1" stop-color="#808080" stop-opacity="0.1"/>
</linearGradient>
<linearGradient id="paint9_linear_6_101" x1="214.36" y1="339.518" x2="214.36" y2="309.986" gradientUnits="userSpaceOnUse">
<stop stop-color="#808080" stop-opacity="0.25"/>
<stop offset="0.54" stop-color="#808080" stop-opacity="0.12"/>
<stop offset="1" stop-color="#808080" stop-opacity="0.1"/>
</linearGradient>
<linearGradient id="paint10_linear_6_101" x1="618.376" y1="404.443" x2="618.376" y2="283.874" gradientUnits="userSpaceOnUse">
<stop stop-color="#808080" stop-opacity="0.25"/>
<stop offset="0.54" stop-color="#808080" stop-opacity="0.12"/>
<stop offset="1" stop-color="#808080" stop-opacity="0.1"/>
</linearGradient>
<linearGradient id="paint11_linear_6_101" x1="596.413" y1="257.823" x2="596.413" y2="236.688" gradientUnits="userSpaceOnUse">
<stop stop-color="#808080" stop-opacity="0.25"/>
<stop offset="0.54" stop-color="#808080" stop-opacity="0.12"/>
<stop offset="1" stop-color="#808080" stop-opacity="0.1"/>
</linearGradient>
<linearGradient id="paint12_linear_6_101" x1="564.048" y1="304.137" x2="564.048" y2="278.952" gradientUnits="userSpaceOnUse">
<stop stop-color="#808080" stop-opacity="0.25"/>
<stop offset="0.54" stop-color="#808080" stop-opacity="0.12"/>
<stop offset="1" stop-color="#808080" stop-opacity="0.1"/>
</linearGradient>
<linearGradient id="paint13_linear_6_101" x1="671.622" y1="304.719" x2="671.622" y2="279.243" gradientUnits="userSpaceOnUse">
<stop stop-color="#808080" stop-opacity="0.25"/>
<stop offset="0.54" stop-color="#808080" stop-opacity="0.12"/>
<stop offset="1" stop-color="#808080" stop-opacity="0.1"/>
</linearGradient>
<linearGradient id="paint14_linear_6_101" x1="618.436" y1="267.134" x2="618.436" y2="234" gradientUnits="userSpaceOnUse">
<stop stop-color="#808080" stop-opacity="0.25"/>
<stop offset="0.54" stop-color="#808080" stop-opacity="0.12"/>
<stop offset="1" stop-color="#808080" stop-opacity="0.1"/>
</linearGradient>
<linearGradient id="paint15_linear_6_101" x1="617.796" y1="403.577" x2="617.796" y2="262.164" gradientUnits="userSpaceOnUse">
<stop stop-color="#808080" stop-opacity="0.25"/>
<stop offset="0.54" stop-color="#808080" stop-opacity="0.12"/>
<stop offset="1" stop-color="#808080" stop-opacity="0.1"/>
</linearGradient>
<clipPath id="clip0_6_101">
<rect width="1194" height="1024" fill="white" transform="translate(153 238)"/>
</clipPath>
</defs>
</svg>
