<svg width="1500" height="1500" viewBox="0 0 1500 1500" fill="none" xmlns="http://www.w3.org/2000/svg">
<path opacity="0.1" d="M703.866 447.216C703.532 450.309 703.016 453.38 702.32 456.412H779.78V447.216H703.866ZM639.178 499.16L648.362 499.085V476.368C645.213 476.227 642.146 476.086 639.178 475.938V499.16ZM446.628 447.216V456.412H610.724V447.216H446.628ZM1149.04 166.407H1087.87V94.0771C1084.92 92.8752 1081.85 91.7725 1078.67 90.7691V166.44H869.077V90C865.994 90.6037 862.935 91.2405 859.885 91.8856V166.407H648.362V130.995C645.312 130.904 642.245 130.755 639.178 130.556V166.407H427.655V115.133C407.129 127.67 387.859 145.302 370.672 166.407H370.614V166.473C368.189 169.45 365.809 172.483 363.472 175.57H370.614V447.216H302C302.915 450.32 303.907 453.385 304.976 456.412H370.606V533.836C373.908 534.846 377.279 535.617 380.692 536.143C381.692 536.301 382.7 536.433 383.709 536.549C386.67 536.88 389.649 537.029 392.629 536.995L427.622 536.615V456.396H639.178V534.307L648.362 534.208V456.412H859.885V531.926L869.077 531.826V456.412H1078.63V460.357C1079.26 459.05 1079.91 457.744 1080.55 456.412C1082 453.413 1083.47 450.347 1084.96 447.216C1085.91 445.203 1086.87 443.163 1087.83 441.096V175.628H1151C1150.44 172.491 1149.79 169.417 1149.04 166.407ZM427.655 447.216V175.595H639.178V447.216H427.655ZM648.379 447.216V175.595H859.885V447.216H648.379ZM1078.65 447.216H869.077V175.595H1078.63L1078.65 447.216Z" fill="#3F39B5"/>
<path d="M314.239 578.996C314.471 586.886 315.706 594.7 316.646 602.538C318.576 618.539 319.374 634.822 324.084 650.229C329.207 666.937 338.717 681.908 348.112 696.659C351.407 701.821 354.701 706.97 357.983 712.131C359.206 714.036 360.415 715.954 361.638 717.859C376.425 741.055 391.792 764.855 413.67 781.331C415.008 782.335 416.36 783.314 417.75 784.266C433.18 794.834 451.365 801.334 470 802.931C460.644 798.76 456.809 787.021 458.044 776.852C459.293 766.683 464.376 757.467 468.366 748.031C472.368 738.596 475.341 727.964 472.188 718.207C471.48 716.044 470.515 714.023 469.357 712.131C465.136 705.257 458.328 699.903 452.073 694.574C444.081 687.777 436.024 679.359 435.548 668.881C434.918 655.16 426.153 659.755 424.609 646.111C423.541 636.74 411.045 620.765 410.453 611.356C409.925 602.989 415.06 582.754 420.748 576.601C426.437 570.449 421.212 552.08 424.609 544.421C428.007 536.763 465.084 543.173 457.838 538.989L459.782 536.222C475.753 532.965 492.818 535.604 507.181 543.276C510.308 544.936 513.294 546.828 516.125 548.965C522.959 536.479 514.851 520.634 503.822 511.636C493.024 502.806 479.717 497.709 466.513 493.216C464.235 492.444 461.944 491.672 459.64 490.925C444.66 486.085 429.255 482.146 413.67 481.503C409.719 481.323 405.768 481.374 401.804 481.67C389.977 482.558 378.368 485.763 367.7 490.925C356.683 496.254 346.671 503.656 338.486 512.756C330.493 521.638 324.29 532.077 320.159 543.276C315.938 554.667 313.866 566.857 314.239 578.996H314.239Z" fill="#3F39B5"/>
<circle cx="722" cy="921" r="3" fill="black"/>
<path d="M1081.2 490.863C1071.01 496.587 1054.58 473.947 1050.85 485.021C1047.13 496.095 1056.15 540.78 1060.8 551.496C1063.12 556.823 1066.39 561.695 1068.66 567.041C1070.93 572.386 1072.14 578.532 1070.14 583.982C1066.65 593.467 1055.12 597.325 1049.41 605.661C1042.75 615.37 1045.44 628.447 1048.55 639.799C1051.23 649.585 1054.09 659.459 1059.25 668.193C1064.41 676.928 1072.2 684.533 1081.92 687.423C1094.3 691.102 1107.53 686.73 1119.47 681.793C1130.94 677.047 1142.3 671.666 1152.06 663.987C1161.82 656.309 1169.96 646.116 1173.37 634.174C1177.65 619.194 1174.08 602.801 1166.67 589.097C1159.26 575.394 1148.3 563.977 1137.05 553.199C1118.11 535.046 1097.95 518.162 1076.75 502.699" fill="#3F39B5"/>
<path d="M457.483 695.977C457.483 695.977 498.713 671.801 509.816 694.218C520.919 716.635 623.495 984.063 623.495 984.063L557.395 996.935L457.483 695.977L457.483 695.977Z" fill="#C09AEC"/>
<path d="M764.297 802.781C744.806 796.855 732.063 781.993 735.835 769.586C739.608 757.18 758.465 751.93 777.963 757.86C785.784 760.122 792.949 764.225 798.86 769.825L881.13 795.975L868.038 834.328L788.324 804.476C780.295 805.838 772.056 805.257 764.297 802.781H764.297Z" fill="#FFB6B6"/>
<path d="M1049.68 665.459C1049.68 665.459 1099.92 686.893 1091.66 717.586C1083.41 748.28 991.81 850.956 991.81 850.956C991.81 850.956 989.47 878.997 961.026 872.578C932.582 866.16 799.463 819.061 799.463 819.061L816.85 766.89L950.151 808.917L1006.94 683.851L1049.68 665.458V665.459Z" fill="#3F39B5"/>
<path d="M367.557 536.221L369.501 538.989C362.255 543.172 361.187 553.727 364.585 561.386C367.982 569.045 374.559 574.722 380.247 580.875C385.935 587.027 391.122 594.648 390.594 603.014C390.002 612.424 382.332 620.173 381.264 629.544C379.719 643.188 392.422 655.159 391.791 668.881C391.315 679.358 383.258 687.777 375.266 694.573C369.012 699.902 362.204 705.257 357.982 712.131C356.824 714.023 355.859 716.044 355.151 718.206C351.998 727.963 354.971 738.596 358.973 748.031C362.963 757.466 368.047 766.682 369.295 776.851C370.53 787.02 366.695 798.76 357.339 802.93C375.974 801.334 394.159 794.834 409.59 784.266C410.98 783.313 412.331 782.335 413.669 781.331C435.548 764.855 450.914 741.054 465.701 717.859C466.924 715.954 468.134 714.036 469.356 712.131C472.638 706.969 475.933 701.82 479.227 696.659C488.622 681.907 498.133 666.937 503.255 650.229C507.965 634.821 508.763 618.538 510.694 602.538C511.633 594.699 512.869 586.886 513.1 578.995C513.473 566.857 511.401 554.667 507.18 543.275C503.049 532.076 496.846 521.637 488.854 512.756C480.669 503.655 470.656 496.254 459.64 490.925C448.971 485.763 437.362 482.558 425.535 481.67C421.571 481.374 417.62 481.322 413.669 481.502C398.084 482.146 382.679 486.085 367.699 490.925C356.683 496.254 346.67 503.655 338.485 512.756C330.493 521.637 324.29 532.076 320.159 543.275C334.521 535.603 351.586 532.965 367.557 536.221Z" fill="#3F39B5"/>
<path d="M367.389 536.294L369.332 539.062C362.086 543.245 361.018 553.8 364.416 561.459C367.813 569.118 374.39 574.794 380.078 580.947C385.766 587.1 390.953 594.72 390.425 603.087C389.833 612.497 382.163 620.246 381.095 629.616C379.55 643.261 392.253 655.232 391.622 668.953C391.146 679.431 383.089 687.85 375.097 694.646C368.843 699.975 362.035 705.33 357.814 712.204C356.655 714.096 355.69 716.117 354.982 718.279C351.829 728.036 354.802 738.668 358.805 748.103C362.794 757.539 367.878 766.755 369.126 776.924C370.361 787.093 366.526 798.832 357.17 803.003C375.805 801.407 393.99 794.906 409.421 784.338C410.811 783.386 412.162 782.408 413.5 781.404C435.379 764.927 450.745 741.127 465.532 717.932C466.755 716.026 467.965 714.109 469.187 712.204C472.469 707.042 475.764 701.893 479.058 696.731C488.453 681.98 497.964 667.01 503.086 650.302C507.796 634.894 508.594 618.611 510.525 602.611C511.464 594.772 512.7 586.958 512.931 579.068C513.304 566.929 511.232 554.74 507.011 543.348C502.88 532.149 496.677 521.71 488.685 512.828C480.5 503.728 470.487 496.326 459.471 490.997C448.802 485.836 437.193 482.631 425.366 481.742C421.402 481.446 417.451 481.395 413.5 481.575C397.915 482.219 382.51 486.157 367.53 490.997C356.514 496.326 346.501 503.728 338.316 512.828C330.324 521.71 324.121 532.149 319.99 543.348C334.352 535.676 351.417 533.037 367.389 536.294Z" fill="#3F39B5"/>
<path d="M1060.27 817.612H973.334V937.896H1060.27V817.612Z" fill="#3F39B5"/>
<path d="M479.25 677.04L405.355 648.056L403.484 677.04L338.704 687.185L308.277 824.858L335.806 910.361L541.554 916.158L534.309 887.174C534.309 887.174 567.635 849.495 547.35 788.628L545.097 773.138C539.207 732.636 514.891 697.149 479.25 677.04L479.25 677.04Z" fill="#C09AEC"/>
<path d="M1176.91 679.214L1074.03 669.069L971.161 786.454C971.161 786.454 942.183 856.016 1004.49 879.203V936.994L1160.97 941.519L1176.91 679.214Z" fill="#E6E6E6"/>
<path d="M1092.87 954.561L1139.24 658.925L1224.72 683.561V976.431L1092.87 954.561Z" fill="#3F39B5"/>
<path d="M1106.64 639.361C1147.45 639.361 1180.53 606.271 1180.53 565.452C1180.53 524.633 1147.45 491.542 1106.64 491.542C1065.82 491.542 1032.74 524.633 1032.74 565.452C1032.74 606.271 1065.82 639.361 1106.64 639.361Z" fill="#FFB6B6"/>
<path d="M438.122 646.754C474.371 646.754 503.757 617.362 503.757 581.106C503.757 544.85 474.371 515.459 438.122 515.459C401.873 515.459 372.487 544.85 372.487 581.106C372.487 617.362 401.873 646.754 438.122 646.754Z" fill="#FFB6B6"/>
<path d="M1189.94 681.203C1172.69 705.811 1163.87 736.215 1165.27 766.234C1145.71 756.76 1132.52 736.742 1128.02 715.479C1123.53 694.216 1126.96 671.89 1134.18 651.391C1134.25 651.186 1134.32 650.981 1134.4 650.777C1145.36 620.009 1135.17 585.621 1108.7 566.495C1090.84 553.594 1075.36 537.409 1063.47 518.856C1056.76 508.382 1051.06 495.243 1056.07 483.859C1060.69 473.368 1072.62 468.465 1083.6 465.185C1108.68 457.694 1135.32 453.431 1161.06 458.171C1186.79 462.911 1211.57 477.714 1223.73 500.889C1235.9 524.064 1232.71 555.692 1212.97 572.873C1219.19 574.886 1223.6 581.488 1223.07 588.012C1222.54 594.536 1217.13 600.341 1210.66 601.325C1214.88 601.175 1217.37 606.736 1215.87 610.683C1214.36 614.63 1210.48 617.082 1206.78 619.114C1201.5 622.008 1195.65 625.034 1195.63 632.612C1195.62 635.651 1196.71 638.6 1198.48 641.07C1202.77 647.055 1209.69 649.75 1216.36 652.281C1202.26 656.434 1191.01 669.04 1188.49 683.523" fill="#3F39B5"/>
<path d="M1079.11 668.345C1079.11 668.345 951.6 788.628 987.824 900.217L992.17 930.65L945.805 923.404C945.805 923.404 977.681 688.634 1009.56 677.04C1041.43 665.447 1057.37 652.404 1067.51 652.404C1077.66 652.404 1079.11 668.345 1079.11 668.345Z" fill="#3F39B5"/>
<path d="M1422.56 1163H1422.39L77.2946 1157.7C62.7049 1157.65 49.5025 1150.15 41.9777 1137.65C34.4529 1125.14 34.0065 1109.96 40.7849 1097.04L138.846 910.078C146.02 896.397 160.073 887.898 175.519 887.898H1331.07C1346.96 887.898 1361.64 897.17 1368.46 911.519L1459.95 1103.78C1466.11 1116.72 1465.2 1131.67 1457.53 1143.77C1449.88 1155.82 1436.82 1163 1422.56 1163Z" fill="white"/>
<path d="M1422.56 1163H1422.39L77.2946 1157.7C62.7049 1157.65 49.5025 1150.15 41.9777 1137.65C34.4529 1125.14 34.0065 1109.96 40.7849 1097.04L138.846 910.078C146.02 896.397 160.073 887.898 175.519 887.898H1331.07C1346.96 887.898 1361.64 897.17 1368.46 911.519L1459.95 1103.78C1466.11 1116.72 1465.2 1131.67 1457.53 1143.77C1449.88 1155.82 1436.82 1163 1422.56 1163ZM175.519 892.246C161.694 892.246 149.117 899.853 142.695 912.096L44.6336 1099.06C38.5677 1110.63 38.9667 1124.21 45.7019 1135.4C52.4364 1146.59 64.2536 1153.31 77.3116 1153.36L1422.41 1158.65H1422.56C1435.32 1158.65 1447.01 1152.23 1453.86 1141.44C1460.72 1130.61 1461.54 1117.23 1456.03 1105.65L1364.54 913.387C1358.43 900.545 1345.29 892.246 1331.07 892.246H175.519Z" fill="#3F3D56"/>
<path d="M446.65 1027.02L665.438 947.316L556.044 903.309L337.98 960.358L446.65 1027.02Z" fill="#F2F2F2"/>
<path d="M779.903 906.738L755.271 984.995L1043.61 1002.39L1018.98 913.984L779.903 906.738Z" fill="#F2F2F2"/>
<path d="M440.024 920.124C460.297 922.135 475.692 934.227 474.411 947.131C473.129 960.035 455.658 968.862 435.378 966.848C427.266 966.154 419.438 963.528 412.549 959.188L326.76 949.584L332.125 909.414L416.128 923.147C423.737 920.245 431.931 919.209 440.024 920.124Z" fill="#FFB6B6"/>
<path d="M353.918 695.155L338.704 687.185C338.704 687.185 314.797 687.909 298.859 703.85C282.921 719.792 153.966 902.391 153.966 902.391C153.966 902.391 122.09 951.663 201.781 958.909C281.472 966.155 369.856 966.155 369.856 966.155L377.101 906.738L256.84 893.695L341.054 782.107L353.918 695.155Z" fill="#C09AEC"/>
<path d="M990.333 952.224C969.988 953.284 952.951 943.644 952.278 930.694C951.606 917.744 967.552 906.39 987.904 905.333C996.028 904.799 1004.16 906.219 1011.62 909.473L1097.88 906.071L1098.62 946.591L1013.5 945.643C1006.42 949.656 998.471 951.913 990.333 952.224Z" fill="#FFB6B6"/>
<path d="M1162.13 675.591C1162.13 675.591 1214.58 660.374 1227.62 689.358C1240.66 718.342 1314.56 932.823 1314.56 932.823C1314.56 932.823 1330.49 956.011 1304.41 969.053C1278.33 982.096 1068.24 950.214 1068.24 950.214L1075.06 904.564L1223.27 890.797L1140.69 716.893L1162.13 675.591Z" fill="#3F39B5"/>
<path d="M809.959 675.851C795.34 680.185 779.894 682.634 763.942 682.866C763 682.895 762.058 682.909 761.116 682.909C746.685 682.909 732.674 681.127 719.271 677.764L719.619 674.33L727.414 599.131L727.907 594.319L720.677 572.625H809.38L807.96 593.827L807.438 601.551L808.206 604L827.767 666.345L828.636 669.127C822.58 671.721 816.349 673.967 809.959 675.851Z" fill="#C09AEC"/>
<path d="M719.271 677.765C698.218 672.504 678.687 663.345 661.488 651.129C654.403 647.288 647.52 643.129 640.928 638.723L644.188 637.086L726.096 596.117L727.414 599.131L762.681 679.997L763.942 682.866C763 682.895 762.058 682.909 761.116 682.909C746.685 682.909 732.674 681.127 719.271 677.765H719.271Z" fill="#3F39B5"/>
<path d="M897.721 615.565C897.359 616.057 896.982 616.536 896.606 617.014C890.491 624.782 883.71 631.999 876.379 638.593L876.321 634.723L876.118 620.478C876.118 620.478 881.971 616.202 889.202 615.087C890.926 614.811 892.737 614.724 894.563 614.927C895.62 615.029 896.664 615.232 897.721 615.565Z" fill="#3F39B5"/>
<path d="M876.378 638.593C862.353 651.244 846.241 661.62 828.636 669.127C822.58 671.722 816.349 673.968 809.959 675.852L809.887 672.852L808.206 604.001L807.96 593.827L889.201 615.087L893.519 616.217L896.605 617.014C890.491 624.782 883.71 631.999 876.378 638.593V638.593Z" fill="#3F39B5"/>
<path d="M765.864 549.116C801.802 549.116 830.935 519.977 830.935 484.032C830.935 448.088 801.802 418.949 765.864 418.949C729.926 418.949 700.792 448.088 700.792 484.032C700.792 519.977 729.926 549.116 765.864 549.116Z" fill="#FFB6B6"/>
<path d="M761.116 338C666.052 338 588.694 415.358 588.694 510.455C588.694 511.498 588.708 512.541 588.737 513.585C589.636 512.527 590.592 511.484 591.592 510.455C639.406 461.182 667.646 340.898 761.116 340.898C854.601 340.898 930.641 416.952 930.641 510.455C930.641 549.829 917.151 586.117 894.562 614.928C894.215 615.362 893.881 615.797 893.519 616.217C888.245 622.811 882.493 628.999 876.32 634.723C862.164 647.882 845.762 658.635 827.767 666.345C821.971 668.852 816.001 671.026 809.887 672.852C794.905 677.373 779.068 679.851 762.681 679.996C762.159 680.011 761.638 680.011 761.116 680.011C747.989 680.011 733.92 677.996 719.619 674.33C700.087 669.33 680.107 661.273 661.488 651.128C678.687 663.345 698.218 672.504 719.271 677.765C732.674 681.127 746.685 682.909 761.116 682.909C762.058 682.909 763 682.895 763.942 682.866C779.894 682.634 795.34 680.185 809.96 675.852C816.349 673.968 822.58 671.722 828.636 669.127C846.241 661.62 862.353 651.244 876.378 638.593C883.71 631.999 890.491 624.782 896.605 617.014C896.982 616.536 897.359 616.058 897.721 615.565C920.179 586.451 933.538 549.989 933.538 510.455C933.538 415.358 856.195 338 761.116 338V338ZM644.188 637.085C610.79 606.217 589.592 562.336 588.737 513.585C554.644 553.061 588.52 603.725 640.928 638.723C647.52 643.129 654.403 647.288 661.488 651.128C655.417 646.824 649.636 642.129 644.188 637.085ZM809.887 672.852C794.905 677.373 779.068 679.851 762.681 679.996L763.942 682.866C779.894 682.634 795.34 680.185 809.96 675.852L809.887 672.852Z" fill="#E6E6E6"/>
<path d="M707.584 518.656C695.874 507.608 687.71 492.963 695.88 461.744C696.488 459.42 694.858 456.925 693.284 455.111C691.709 453.296 688.74 452.453 686.872 453.963C688.202 450.044 706.436 436.045 707.767 432.125C706.212 434.187 694.357 438.608 693.406 436.207C692.456 433.806 693.289 431.108 694.124 428.665L699.101 414.099C700.353 410.436 705.291 414.813 707.767 411.837C712.202 406.505 707.14 400.884 713.912 399.389C736.075 394.496 759.571 390.125 781.102 397.306C790.507 400.443 799.06 405.655 807.522 410.823L823.004 420.279C831.886 425.704 841.533 432.14 843.966 442.26L827.709 436.449C831.33 444.161 834.983 451.968 836.639 460.326C838.296 468.684 833.816 500.152 829.476 507.484C825.664 513.925 822.965 496.626 821.711 504.006C823.147 489.51 816.623 474.473 805.057 465.621C802.685 463.805 799.98 462.059 798.925 459.264C797.749 456.147 798.928 452.398 797.322 449.479C795.324 445.85 790.108 445.504 786.218 446.929C782.329 448.353 778.929 451.03 774.9 451.99C764.217 454.533 754.5 444.432 743.545 443.672C733.11 442.948 723.775 451.119 719.436 460.639C715.097 470.158 703.093 468.098 701.971 478.5C700.849 488.902 717.236 509.488 710.664 517.628" fill="#3F39B5"/>
<path d="M669.103 589.309C668.507 588.542 667.402 588.404 666.636 589C666.578 589.045 666.523 589.093 666.471 589.145L663.79 591.829C662.537 593.085 662.076 594.861 662.623 596.42C664.894 602.871 668.587 608.728 673.43 613.557C678.258 618.401 684.114 622.095 690.564 624.366C692.123 624.913 693.899 624.452 695.154 623.199L697.835 620.518C698.522 619.831 698.523 618.718 697.836 618.031C697.785 617.979 697.729 617.93 697.671 617.885L691.69 613.233C691.263 612.902 690.709 612.785 690.186 612.916L684.507 614.335C682.965 614.72 681.335 614.269 680.211 613.145L673.843 606.773C672.718 605.649 672.265 604.018 672.65 602.475L674.071 596.796C674.202 596.272 674.085 595.718 673.754 595.292L669.103 589.309ZM664.513 587.19C666.28 585.422 669.145 585.422 670.912 587.189C671.045 587.322 671.17 587.464 671.286 587.613L675.938 593.593C676.791 594.69 677.091 596.119 676.754 597.467L675.336 603.147C675.187 603.745 675.362 604.378 675.798 604.815L682.168 611.187C682.605 611.623 683.239 611.798 683.838 611.648L689.514 610.23C690.862 609.892 692.291 610.194 693.388 611.047L699.367 615.699C701.517 617.372 701.714 620.549 699.79 622.47L697.109 625.152C695.19 627.071 692.322 627.914 689.649 626.973C682.807 624.565 676.594 620.647 671.473 615.51C666.337 610.388 662.42 604.175 660.012 597.333C659.073 594.661 659.916 591.79 661.835 589.871L664.516 587.19H664.513H664.513Z" fill="#CCCCCC"/>
<path d="M755.931 602.598C756.647 602.598 757.228 603.178 757.228 603.894V606.488C757.228 612.217 761.871 616.861 767.599 616.861C773.327 616.861 777.971 612.217 777.971 606.488V603.894C777.971 603.178 778.551 602.598 779.267 602.598C779.984 602.598 780.564 603.178 780.564 603.894V606.488C780.564 613.147 775.521 618.724 768.896 619.39V624.642H776.675C777.391 624.642 777.971 625.222 777.971 625.938C777.971 626.654 777.391 627.235 776.675 627.235H758.524C757.808 627.235 757.228 626.654 757.228 625.938C757.228 625.222 757.808 624.642 758.524 624.642H766.303V619.39C759.678 618.724 754.635 613.147 754.635 606.488V603.894C754.635 603.178 755.215 602.598 755.931 602.598Z" fill="#CCCCCC"/>
<path d="M772.785 606.488C772.785 609.353 770.464 611.675 767.6 611.675C764.736 611.675 762.414 609.353 762.414 606.488V593.521C762.414 590.656 764.736 588.334 767.6 588.334C770.464 588.334 772.785 590.656 772.785 593.521V606.488ZM767.6 585.741C763.303 585.741 759.821 589.224 759.821 593.521V606.488C759.821 610.785 763.303 614.268 767.6 614.268C771.896 614.268 775.378 610.785 775.378 606.488V593.521C775.378 589.224 771.896 585.741 767.6 585.741Z" fill="#CCCCCC"/>
<path d="M867.792 606.58C867.792 608.042 867.548 609.45 867.102 610.763L864.992 608.652C865.13 607.97 865.199 607.275 865.199 606.58V603.986C865.199 603.27 865.78 602.689 866.496 602.689C867.212 602.689 867.792 603.27 867.792 603.986V606.58ZM854.827 616.953C856.948 616.953 858.919 616.318 860.563 615.223L862.425 617.088C860.574 618.431 858.399 619.257 856.124 619.482V624.733H863.903C864.619 624.733 865.199 625.314 865.199 626.03C865.199 626.746 864.619 627.327 863.903 627.327H845.752C845.036 627.327 844.456 626.746 844.456 626.03C844.456 625.314 845.036 624.733 845.752 624.733H853.531V619.482C846.906 618.816 841.863 613.239 841.863 606.58V603.986C841.863 603.27 842.443 602.689 843.159 602.689C843.875 602.689 844.456 603.27 844.456 603.986V606.58C844.456 612.309 849.099 616.953 854.827 616.953V616.953ZM862.606 593.612V606.266L860.013 603.672V593.612C860.026 590.748 857.714 588.415 854.85 588.403C852.087 588.391 849.8 590.547 849.649 593.306L847.458 591.115C848.843 587.046 853.263 584.87 857.332 586.254C860.482 587.327 862.602 590.284 862.606 593.612V593.612Z" fill="#CCCCCC"/>
<path d="M858.681 613.341L856.741 611.401C854.079 612.458 851.064 611.156 850.008 608.494C849.766 607.885 849.642 607.235 849.642 606.58V604.303L847.049 601.709V606.58C847.047 610.877 850.529 614.361 854.825 614.362C856.177 614.363 857.506 614.011 858.681 613.341ZM838.352 589.344L869.467 620.465L871.303 618.629L840.188 587.508L838.352 589.344Z" fill="#CCCCCC"/>
<circle cx="474" cy="578" r="5" fill="black"/>
<circle cx="422" cy="578" r="5" fill="black"/>
<circle cx="730" cy="490" r="5" fill="black"/>
<circle cx="782" cy="490" r="5" fill="black"/>
<circle r="4.5" transform="matrix(-1 0 0 1 1049.5 560.5)" fill="black"/>
<circle r="4.5" transform="matrix(-1 0 0 1 1074.5 589.5)" fill="black"/>
<path d="M1153.85 981.931C1153.85 981.931 1131.18 1003.41 1093 981.931L1098.97 1053.52C1098.97 1053.52 1099.5 1053.69 1100.46 1053.96C1101.16 1056.47 1103.05 1058.54 1105.63 1059.35C1113.94 1061.98 1129.92 1065.56 1140.72 1058.76C1142.98 1057.34 1144.3 1054.82 1144.3 1052.16V1051.95C1145.14 1051.34 1145.95 1050.68 1146.69 1049.94L1153.85 981.931Z" fill="#3F3D56"/>
<path d="M1123.42 992.669C1140.23 992.669 1153.85 987.861 1153.85 981.931C1153.85 976 1140.23 971.193 1123.42 971.193C1106.62 971.193 1093 976 1093 981.931C1093 987.861 1106.62 992.669 1123.42 992.669Z" fill="#C09AEC"/>
<path d="M1106.72 983.124C1108.37 983.124 1109.7 982.056 1109.7 980.738C1109.7 979.42 1108.37 978.352 1106.72 978.352C1105.07 978.352 1103.74 979.42 1103.74 980.738C1103.74 982.056 1105.07 983.124 1106.72 983.124Z" fill="#3F3D56"/>
<path d="M1136.55 983.124C1138.2 983.124 1139.53 982.056 1139.53 980.738C1139.53 979.42 1138.2 978.352 1136.55 978.352C1134.9 978.352 1133.57 979.42 1133.57 980.738C1133.57 982.056 1134.9 983.124 1136.55 983.124Z" fill="#3F3D56"/>
<path d="M1126.41 969.045C1126.41 970.89 1124.54 972.386 1122.23 972.386C1119.93 972.386 1118.06 970.89 1118.06 969.045C1118.06 967.2 1122.67 963.44 1122.23 965.704C1121.64 968.807 1126.41 967.2 1126.41 969.045Z" fill="#3F3D56"/>
<path d="M1140.72 977.397C1140.72 979.242 1138.86 980.738 1136.55 980.738C1134.24 980.738 1132.37 979.242 1132.37 977.397C1132.37 975.552 1136.98 971.792 1136.55 974.056C1135.95 977.159 1140.72 975.552 1140.72 977.397Z" fill="#3F3D56"/>
<path d="M1132.37 980.976C1132.37 982.821 1130.5 984.317 1128.2 984.317C1125.89 984.317 1124.02 982.821 1124.02 980.976C1124.02 979.131 1128.63 975.371 1128.2 977.636C1127.6 980.738 1132.37 979.131 1132.37 980.976Z" fill="#3F3D56"/>
<path d="M1121.64 982.17C1121.64 984.015 1119.77 985.51 1117.46 985.51C1115.15 985.51 1113.28 984.015 1113.28 982.17C1113.28 980.325 1117.89 976.564 1117.46 978.829C1116.86 981.931 1121.64 980.325 1121.64 982.17Z" fill="#3F3D56"/>
<path d="M1110.9 978.59C1110.9 980.435 1109.03 981.931 1106.72 981.931C1104.41 981.931 1102.54 980.435 1102.54 978.59C1102.54 976.745 1107.16 972.985 1106.72 975.249C1106.12 978.351 1110.9 976.745 1110.9 978.59Z" fill="#3F3D56"/>
<path d="M1115.07 987.896C1116.72 987.896 1118.06 986.828 1118.06 985.51C1118.06 984.192 1116.72 983.124 1115.07 983.124C1113.43 983.124 1112.09 984.192 1112.09 985.51C1112.09 986.828 1113.43 987.896 1115.07 987.896Z" fill="#3F3D56"/>
<path d="M1129.39 987.896C1131.04 987.896 1132.37 986.828 1132.37 985.51C1132.37 984.192 1131.04 983.124 1129.39 983.124C1127.74 983.124 1126.41 984.192 1126.41 985.51C1126.41 986.828 1127.74 987.896 1129.39 987.896Z" fill="#3F3D56"/>
<path d="M1130.79 976.204C1130.79 979.367 1123.62 977.977 1123.64 981.931C1123.69 996.14 1117.44 982.765 1116.48 976.204C1116.02 973.074 1119.68 970.477 1123.63 970.477C1127.59 970.477 1130.79 973.041 1130.79 976.204Z" fill="#3F3D56"/>
<path d="M337.849 951.931C337.849 951.931 315.18 973.407 277 951.931L282.966 1023.52C282.966 1023.52 283.502 1023.69 284.462 1023.96C285.156 1026.47 287.052 1028.54 289.627 1029.35C297.937 1031.98 313.918 1035.56 324.722 1028.76C326.975 1027.34 328.304 1024.82 328.304 1022.16V1021.95C329.142 1021.34 329.947 1020.68 330.69 1019.94L337.849 951.931Z" fill="#3F3D56"/>
<path d="M307.424 962.669C324.227 962.669 337.849 957.861 337.849 951.931C337.849 946 324.227 941.193 307.424 941.193C290.622 941.193 277 946 277 951.931C277 957.861 290.622 962.669 307.424 962.669Z" fill="#C09AEC"/>
<path d="M290.721 953.124C292.368 953.124 293.704 952.056 293.704 950.738C293.704 949.42 292.368 948.352 290.721 948.352C289.074 948.352 287.738 949.42 287.738 950.738C287.738 952.056 289.074 953.124 290.721 953.124Z" fill="#3F3D56"/>
<path d="M320.549 953.124C322.196 953.124 323.531 952.056 323.531 950.738C323.531 949.42 322.196 948.352 320.549 948.352C318.901 948.352 317.566 949.42 317.566 950.738C317.566 952.056 318.901 953.124 320.549 953.124Z" fill="#3F3D56"/>
<path d="M310.408 939.045C310.408 940.89 308.538 942.386 306.232 942.386C303.925 942.386 302.056 940.89 302.056 939.045C302.056 937.2 306.667 933.44 306.232 935.704C305.635 938.807 310.408 937.2 310.408 939.045Z" fill="#3F3D56"/>
<path d="M324.725 947.397C324.725 949.242 322.855 950.738 320.549 950.738C318.243 950.738 316.373 949.242 316.373 947.397C316.373 945.552 320.984 941.791 320.549 944.056C319.952 947.158 324.725 945.552 324.725 947.397Z" fill="#3F3D56"/>
<path d="M316.373 950.976C316.373 952.821 314.503 954.317 312.197 954.317C309.891 954.317 308.021 952.821 308.021 950.976C308.021 949.131 312.632 945.371 312.197 947.636C311.6 950.738 316.373 949.131 316.373 950.976Z" fill="#3F3D56"/>
<path d="M305.635 952.169C305.635 954.014 303.765 955.51 301.459 955.51C299.153 955.51 297.283 954.014 297.283 952.169C297.283 950.324 301.895 946.564 301.459 948.828C300.863 951.931 305.635 950.324 305.635 952.169Z" fill="#3F3D56"/>
<path d="M294.897 948.59C294.897 950.435 293.027 951.931 290.721 951.931C288.415 951.931 286.545 950.435 286.545 948.59C286.545 946.745 291.156 942.985 290.721 945.249C290.124 948.351 294.897 946.745 294.897 948.59Z" fill="#3F3D56"/>
<path d="M299.073 957.896C300.72 957.896 302.055 956.828 302.055 955.51C302.055 954.192 300.72 953.124 299.073 953.124C297.425 953.124 296.09 954.192 296.09 955.51C296.09 956.828 297.425 957.896 299.073 957.896Z" fill="#3F3D56"/>
<path d="M313.39 957.896C315.037 957.896 316.373 956.828 316.373 955.51C316.373 954.192 315.037 953.124 313.39 953.124C311.743 953.124 310.407 954.192 310.407 955.51C310.407 956.828 311.743 957.896 313.39 957.896Z" fill="#3F3D56"/>
<path d="M314.794 946.204C314.794 949.367 307.619 947.977 307.635 951.931C307.692 966.14 301.435 952.765 300.476 946.204C300.019 943.074 303.681 940.477 307.635 940.477C311.589 940.477 314.794 943.041 314.794 946.204Z" fill="#3F3D56"/>
</svg>
